<svg width="14" height="16" viewBox="0 0 14 16" fill="none" xmlns="http://www.w3.org/2000/svg">
<g id="Group 34593">
<path id="Vector" d="M13.0863 6.54316C13.0863 11.2434 7.04317 15.2722 7.04317 15.2722C7.04317 15.2722 1 11.2434 1 6.54316C1 4.94042 1.63669 3.40332 2.77 2.27C3.90332 1.13669 5.44042 0.5 7.04317 0.5C8.64591 0.5 10.183 1.13669 11.3163 2.27C12.4496 3.40332 13.0863 4.94042 13.0863 6.54316Z" stroke="white" stroke-width="0.57554" stroke-linecap="round" stroke-linejoin="round"/>
<path id="Vector_2" d="M7.0432 8.55807C8.15571 8.55807 9.05759 7.6562 9.05759 6.54369C9.05759 5.43117 8.15571 4.5293 7.0432 4.5293C5.93068 4.5293 5.02881 5.43117 5.02881 6.54369C5.02881 7.6562 5.93068 8.55807 7.0432 8.55807Z" fill="white"/>
</g>
</svg>
