<svg width="19" height="20" viewBox="0 0 19 20" fill="none" xmlns="http://www.w3.org/2000/svg">
    <g id="Bell_pin_light">
        <path id="Subtract" fillRule="evenodd" clipRule="evenodd"
            d="M10.8278 3.60779C10.406 3.48286 9.96016 3.41602 9.50009 3.41602C7.11922 3.41602 5.11909 5.20622 4.85616 7.57253L4.65682 9.36662C4.55853 10.2512 4.27059 11.1043 3.81265 11.8675L3.35504 12.6302L3.35149 12.6361L3.35148 12.6361C3.23056 12.8377 3.13505 12.9968 3.06588 13.1259C2.99666 13.2552 2.94325 13.373 2.91838 13.4905C2.78771 14.1077 3.13755 14.7256 3.7341 14.9312C3.84761 14.9703 3.97614 14.9851 4.12256 14.9922C4.26889 14.9993 4.45456 14.9993 4.68965 14.9993H4.69644H14.3037H14.3105C14.5456 14.9993 14.7313 14.9993 14.8776 14.9922C15.024 14.9851 15.1526 14.9703 15.2661 14.9312C15.8626 14.7256 16.2125 14.1077 16.0818 13.4905C16.0569 13.373 16.0035 13.2552 15.9343 13.1259C15.8651 12.9968 15.7696 12.8377 15.6487 12.6362L15.6487 12.6361L15.6451 12.6302L15.1875 11.8675C14.7543 11.1455 14.4733 10.3432 14.361 9.50972C14.201 9.55123 14.0366 9.58197 13.8688 9.6011C13.9924 10.4931 14.2949 11.3515 14.7588 12.1247L15.2164 12.8874C15.3416 13.0962 15.4308 13.2449 15.4936 13.3621C15.5569 13.4803 15.5828 13.5477 15.5926 13.594C15.671 13.9644 15.4611 14.3351 15.1032 14.4584C15.0584 14.4739 14.9874 14.4863 14.8533 14.4928C14.7206 14.4993 14.5472 14.4993 14.3037 14.4993H4.69644C4.45302 14.4993 4.27956 14.4993 4.14684 14.4928C4.01282 14.4863 3.94176 14.4739 3.89697 14.4584C3.53904 14.3351 3.32914 13.9644 3.40754 13.594C3.41736 13.5477 3.44325 13.4803 3.50662 13.3621C3.56936 13.2449 3.65855 13.0962 3.78379 12.8874L4.2414 12.1247C4.73633 11.2999 5.04753 10.3779 5.15376 9.42183L5.35311 7.62774C5.58789 5.51465 7.37399 3.91602 9.50009 3.91602C9.84016 3.91602 10.1715 3.95692 10.4892 4.03428C10.5913 3.88353 10.7046 3.74097 10.8278 3.60779ZM12.6779 4.66308C12.5299 4.74714 12.3967 4.85438 12.2833 4.97986C13.0213 5.64063 13.5251 6.56302 13.6455 7.61341C13.8176 7.59315 13.9814 7.54526 14.1321 7.4743C13.9848 6.3612 13.4521 5.38113 12.6779 4.66308Z"
            fill="white" />
        <path id="Ellipse 45"
            d="M7.20593 15.0713C7.34124 15.6605 7.63941 16.1811 8.05419 16.5524C8.46897 16.9237 8.97718 17.125 9.5 17.125C10.0228 17.125 10.531 16.9237 10.9458 16.5524C11.3606 16.1811 11.6588 15.6605 11.7941 15.0713"
            stroke="white" stroke-width="0.5" stroke-linecap="round" />
        <ellipse id="Ellipse 6" cx="13.4583" cy="6.04232" rx="1.58333" ry="1.58333" fill="white" />
    </g>
</svg>