<svg width="19" height="20" viewBox="0 0 19 20" fill="none" xmlns="http://www.w3.org/2000/svg">
<g id="Bell_light">
<path id="Rectangle 1" d="M5.10454 7.60014C5.3534 5.36043 7.24651 3.66602 9.5 3.66602V3.66602C11.7535 3.66602 13.6466 5.36044 13.8955 7.60014L14.0948 9.39423C14.1971 10.3146 14.4966 11.2021 14.9731 11.9961L15.4307 12.7588C15.6785 13.1719 15.8025 13.3784 15.8371 13.5422C15.9417 14.0361 15.6618 14.5304 15.1846 14.6948C15.0263 14.7493 14.7854 14.7493 14.3037 14.7493H4.69635C4.21462 14.7493 3.97375 14.7493 3.81544 14.6948C3.33821 14.5304 3.05833 14.0361 3.16287 13.5422C3.19755 13.3784 3.32147 13.1719 3.56932 12.7588L4.02694 11.9961C4.50337 11.2021 4.80294 10.3146 4.9052 9.39423L5.10454 7.60014Z" stroke="white" stroke-width="0.5"/>
<path id="Ellipse 45" d="M7.20593 15.0713C7.34124 15.6605 7.63941 16.1811 8.05419 16.5524C8.46897 16.9237 8.97718 17.125 9.5 17.125C10.0228 17.125 10.531 16.9237 10.9458 16.5524C11.3606 16.1811 11.6588 15.6605 11.7941 15.0713" stroke="white" stroke-width="0.5" stroke-linecap="round"/>
</g>
</svg>
