<svg width="21" height="20" viewBox="0 0 21 20" fill="none" xmlns="http://www.w3.org/2000/svg">
<path d="M17.4028 9.46805C17.2438 10.0005 17.0847 10.5329 16.9256 11.0654C16.8294 11.3877 16.7331 11.71 16.6368 12.0323C16.6144 12.1073 16.592 12.1824 16.5696 12.2574C16.5575 12.2979 16.5459 12.3385 16.5336 12.3788C16.5177 12.4312 16.5007 12.4832 16.483 12.5349C16.4687 12.5772 16.3885 12.7817 16.4563 12.6151C16.4166 12.7126 16.3708 12.8072 16.3198 12.8986C16.2947 12.9436 16.2673 12.987 16.2389 13.0297C16.2197 13.0585 16.1611 13.1354 16.2556 13.0095C16.2353 13.0366 16.2136 13.0625 16.1916 13.0882C16.1586 13.1269 16.1228 13.1629 16.0862 13.1978C16.0677 13.2154 16.0483 13.232 16.029 13.2486C16.1451 13.1492 16.074 13.2119 16.046 13.2325C16.0034 13.2638 15.9583 13.2912 15.9127 13.3173C15.8891 13.3307 15.8648 13.3428 15.8406 13.3548C15.765 13.3924 15.9548 13.3099 15.8281 13.3586C15.7136 13.4026 15.5936 13.4296 15.4732 13.4486C15.6149 13.4262 15.497 13.4435 15.4684 13.4462C15.4332 13.4495 15.3978 13.4513 15.3625 13.453C15.3127 13.4555 15.2629 13.4553 15.213 13.4553C15.1943 13.4553 15.1757 13.4553 15.157 13.4553C14.8246 13.4553 14.4921 13.4553 14.1596 13.4553C12.7792 13.4553 11.3988 13.4553 10.0183 13.4553C8.75341 13.4553 7.48848 13.4553 6.22358 13.4553C6.0758 13.4553 5.92803 13.4553 5.78025 13.4553C5.74543 13.4553 5.7106 13.4553 5.67575 13.4553C5.66932 13.4553 5.66288 13.4553 5.65645 13.4553C5.6449 13.4553 5.63345 13.455 5.62186 13.4549C5.58941 13.4545 5.55704 13.452 5.52471 13.4494C5.47073 13.4435 5.482 13.4455 5.5585 13.4557C5.53758 13.4524 5.51673 13.4486 5.49597 13.4443C5.43428 13.4324 5.37384 13.4143 5.31418 13.3943C5.28465 13.3844 5.25575 13.3726 5.2269 13.3607C5.35678 13.4139 5.25774 13.3726 5.23076 13.3587C5.1758 13.3305 5.12348 13.2969 5.07232 13.2618C5.04827 13.2453 4.96272 13.1766 5.07232 13.266C5.04034 13.2399 5.01016 13.2115 4.98031 13.1828C4.93551 13.1397 4.89462 13.0924 4.85521 13.044C4.78489 12.9575 4.9186 13.1362 4.85521 13.044C4.83737 13.018 4.823 12.9927 4.80673 12.9657C4.77404 12.9114 4.74624 12.854 4.72023 12.7959C4.7792 12.9276 4.73331 12.8275 4.72271 12.7975C4.70827 12.7567 4.69677 12.7149 4.68569 12.673C4.67495 12.6324 4.64362 12.4175 4.66245 12.5804C4.65586 12.5233 4.65331 12.4654 4.65331 12.408C4.65331 12.4016 4.65331 12.3953 4.65331 12.389C4.65331 12.3477 4.65331 12.3065 4.65331 12.2652C4.65331 11.0418 4.65331 9.81844 4.65331 8.59505C4.65331 7.32279 4.65331 6.0505 4.65331 4.77821C4.65331 4.70703 4.65331 4.63585 4.65331 4.56464C4.49133 4.73401 4.32935 4.90338 4.16736 5.07274C5.08933 5.07274 6.01131 5.07274 6.93327 5.07274C8.30094 5.07274 9.66859 5.07274 11.0363 5.07274C11.2391 5.07274 11.4419 5.07274 11.6448 5.07274C11.4886 4.85835 11.3324 4.64395 11.1762 4.42956C11.0528 5.22595 11.0823 6.03086 11.2995 6.80779C11.4896 7.48804 11.8207 8.10357 12.2458 8.6516C12.9792 9.5972 14.0767 10.2501 15.2243 10.4423C16.2153 10.6083 17.2002 10.4658 18.1167 10.0418C18.359 9.92967 18.4134 9.56514 18.291 9.34661C18.1461 9.08794 17.8684 9.05225 17.6262 9.16432C17.5039 9.22089 17.7196 9.12525 17.5957 9.17843C17.5587 9.1943 17.5214 9.20911 17.4841 9.22392C17.4091 9.25365 17.333 9.28019 17.2566 9.30565C17.0892 9.36137 16.9182 9.40422 16.7458 9.43882C16.7055 9.44688 16.6651 9.4538 16.6247 9.46069C16.6067 9.46377 16.47 9.48225 16.5908 9.46638C16.5084 9.47722 16.4256 9.48445 16.3427 9.49048C16.1745 9.50274 16.0055 9.50284 15.8371 9.49529C15.7672 9.49217 15.6976 9.48651 15.628 9.48C15.5934 9.47676 15.5589 9.47269 15.5245 9.46863C15.4043 9.45445 15.6361 9.48581 15.5167 9.46778C15.3702 9.44564 15.2251 9.41414 15.0814 9.37683C14.9504 9.34284 14.8214 9.30103 14.694 9.25469C14.6308 9.23168 14.5683 9.20645 14.5061 9.18046C14.3977 9.13517 14.6061 9.22609 14.4992 9.17746C14.4585 9.15895 14.4183 9.13933 14.3781 9.11956C14.1287 8.99672 13.8919 8.84686 13.6686 8.67814C13.6419 8.65799 13.6156 8.6372 13.5893 8.61644C13.6955 8.70045 13.6043 8.62774 13.5842 8.61085C13.5329 8.56776 13.483 8.52293 13.4336 8.47754C13.3266 8.37923 13.2252 8.27442 13.1277 8.16595C13.0375 8.06573 12.9527 7.96041 12.8714 7.85235C12.9538 7.96181 12.8832 7.86709 12.8679 7.84543C12.8483 7.81775 12.8293 7.78962 12.8103 7.76148C12.7658 7.69576 12.7238 7.62833 12.6826 7.56032C12.6085 7.43769 12.5414 7.31064 12.4784 7.18151C12.4395 7.10186 12.404 7.02047 12.3695 6.93862C12.4126 7.04094 12.36 6.91193 12.3551 6.89884C12.3353 6.84634 12.317 6.79318 12.2991 6.73995C12.2447 6.57886 12.201 6.41401 12.1639 6.24769C12.1452 6.16357 12.1298 6.07867 12.1156 5.99362C12.1084 5.95079 12.1024 5.9078 12.0964 5.86478C12.1142 5.99202 12.0914 5.80519 12.0893 5.78264C12.071 5.58922 12.0668 5.39459 12.0714 5.20042C12.0736 5.10841 12.0796 5.01654 12.0869 4.92486C12.0905 4.8794 12.0954 4.83408 12.1003 4.78876C12.1074 4.72856 12.1076 4.72847 12.1003 4.78876C12.1045 4.75895 12.1086 4.72939 12.1134 4.69968C12.1352 4.55903 12.1358 4.43563 12.0644 4.30815C11.9778 4.15364 11.8161 4.05649 11.6448 4.05649C10.7228 4.05649 9.80084 4.05649 8.87888 4.05649C7.51121 4.05649 6.14356 4.05649 4.77591 4.05649C4.57306 4.05649 4.37024 4.05649 4.16741 4.05649C3.9025 4.05649 3.68146 4.28763 3.68146 4.56459C3.68146 5.52527 3.68146 6.48592 3.68146 7.4466C3.68146 8.87988 3.68146 10.3132 3.68146 11.7465C3.68146 12.1429 3.65452 12.5558 3.74857 12.9431C3.9102 13.6089 4.39905 14.1071 4.99739 14.3523C5.22847 14.4471 5.48183 14.4714 5.72842 14.4714C6.70842 14.4714 7.68839 14.4714 8.66839 14.4714C10.1489 14.4714 11.6295 14.4714 13.11 14.4714C13.6369 14.4714 14.1638 14.4714 14.6907 14.4714C15.0406 14.4714 15.3835 14.4777 15.7316 14.4284C16.2906 14.3492 16.7549 14.0146 17.0781 13.5425C17.2893 13.2339 17.407 12.8614 17.5142 12.5026C17.6981 11.8869 17.8821 11.2711 18.066 10.6554C18.1573 10.3496 18.2487 10.0439 18.34 9.73812C18.419 9.47376 18.2493 9.18462 18.0006 9.11308C17.7386 9.03781 17.4817 9.20391 17.4028 9.46805Z" fill="white"/>
<path d="M8.311 17.4929C8.31054 17.5266 8.30919 17.5599 8.3069 17.5935C8.29887 17.7114 8.32696 17.4739 8.30646 17.5889C8.29515 17.6525 8.27622 17.7143 8.25495 17.7748C8.30248 17.6395 8.26851 17.7396 8.25421 17.7697C8.24072 17.798 8.22503 17.8251 8.20939 17.8522C8.19379 17.8792 8.17614 17.9048 8.1585 17.9304C8.24322 17.8075 8.15996 17.922 8.13712 17.9472C8.11643 17.97 8.09406 17.9911 8.0717 18.012C7.99184 18.0871 8.16253 17.9445 8.07536 18.0102C8.02623 18.0472 7.97301 18.0778 7.91891 18.106C7.82162 18.1566 8.0247 18.0643 7.92224 18.1037C7.89329 18.1148 7.86351 18.1233 7.83382 18.1319C7.80376 18.1405 7.77307 18.1465 7.74244 18.1525C7.89102 18.1235 7.74968 18.1491 7.7137 18.1508C7.67075 18.1527 7.46526 18.127 7.62032 18.1525C7.55902 18.1424 7.49923 18.1243 7.44052 18.1037C7.33706 18.0673 7.54239 18.1538 7.44385 18.106C7.41636 18.0926 7.38994 18.077 7.3636 18.0613C7.33734 18.0457 7.31235 18.0279 7.2874 18.0102C7.2458 17.9785 7.25464 17.9859 7.31394 18.0324C7.29851 18.0191 7.28342 18.0053 7.26868 17.991C7.23934 17.9635 7.11299 17.8053 7.20424 17.9304C7.16758 17.8801 7.1369 17.8254 7.10855 17.7697C7.09418 17.7414 7.05588 17.6386 7.10781 17.7748C7.09642 17.7449 7.08742 17.7142 7.07844 17.6835C7.06937 17.6524 7.06282 17.6206 7.05627 17.5889C7.04704 17.5336 7.04795 17.5461 7.05898 17.6266C7.05658 17.6045 7.05477 17.5824 7.05357 17.5602C7.04901 17.4932 7.05262 17.4259 7.05898 17.3592C7.04355 17.5209 7.07479 17.3148 7.08742 17.2715C7.09617 17.2416 7.1381 17.1377 7.08217 17.2734C7.0942 17.2442 7.10848 17.2161 7.12274 17.1881C7.13694 17.1603 7.1533 17.1336 7.16959 17.107C7.18068 17.0895 7.1922 17.0723 7.20419 17.0554C7.15835 17.1163 7.15189 17.1261 7.18482 17.0847C7.22381 17.0369 7.26817 16.994 7.31392 16.9533C7.21004 17.0457 7.2862 16.9764 7.3123 16.9578C7.33732 16.94 7.36363 16.9244 7.38989 16.9088C7.41632 16.8931 7.4439 16.8798 7.47144 16.8664C7.34528 16.9276 7.43981 16.8823 7.46963 16.8719C7.49898 16.8616 7.52906 16.8539 7.55907 16.8462C7.57937 16.8413 7.59978 16.837 7.6203 16.8333C7.54294 16.8429 7.53119 16.8448 7.5851 16.8389C7.64909 16.8322 7.7136 16.8341 7.77761 16.8389C7.89035 16.8473 7.66316 16.8179 7.77317 16.8393C7.80369 16.8453 7.83368 16.8539 7.8636 16.8625C7.89324 16.871 7.92214 16.8822 7.95098 16.8932C7.82153 16.8435 7.91733 16.879 7.94607 16.894C7.97317 16.9081 7.99911 16.9245 8.025 16.9408C8.05282 16.9584 8.16246 17.0492 8.04879 16.9534C8.09565 16.9929 8.13774 17.0381 8.17789 17.0848C8.24963 17.1683 8.11331 16.9899 8.17613 17.081C8.19379 17.1067 8.20943 17.1337 8.22503 17.1607C8.24072 17.1879 8.25426 17.2163 8.26775 17.2446C8.31618 17.3464 8.2279 17.134 8.26553 17.2412C8.27615 17.2714 8.28434 17.3025 8.29253 17.3336C8.30142 17.3674 8.32333 17.5185 8.30378 17.3593C8.30919 17.4035 8.31037 17.4483 8.311 17.4929C8.31477 17.7698 8.52919 18.001 8.79695 18.001C9.05899 18.001 9.28667 17.7699 9.2829 17.4929C9.2729 16.7578 8.8324 16.1524 8.18062 15.9022C7.52063 15.6488 6.79261 15.9561 6.38331 16.5175C5.98982 17.0572 5.98476 17.8605 6.34744 18.4177C6.73844 19.0186 7.4498 19.2965 8.12201 19.1032C8.80778 18.906 9.27295 18.2254 9.2829 17.4929C9.28667 17.2159 9.05899 16.9848 8.79695 16.9848C8.52919 16.9848 8.31475 17.216 8.311 17.4929Z" fill="white"/>
<path d="M14.4462 17.4929C14.4457 17.5266 14.4443 17.5599 14.4421 17.5935C14.434 17.7114 14.4621 17.4739 14.4416 17.5889C14.4303 17.6525 14.4113 17.7143 14.3901 17.7748C14.4376 17.6395 14.4036 17.7396 14.3893 17.7697C14.3759 17.798 14.3602 17.8251 14.3445 17.8522C14.3289 17.8792 14.3113 17.9048 14.2937 17.9304C14.3784 17.8075 14.2951 17.922 14.2723 17.9472C14.2516 17.97 14.2292 17.9911 14.2069 18.0121C14.127 18.0871 14.2977 17.9445 14.2105 18.0102C14.1614 18.0472 14.1081 18.0778 14.054 18.106C13.9568 18.1566 14.1598 18.0643 14.0574 18.1037C14.0284 18.1148 13.9987 18.1233 13.9689 18.1319C13.9389 18.1405 13.9082 18.1465 13.8776 18.1525C14.0262 18.1236 13.8848 18.1492 13.8489 18.1508C13.8059 18.1527 13.6004 18.127 13.7555 18.1525C13.6942 18.1424 13.6344 18.1243 13.5757 18.1037C13.4722 18.0673 13.6775 18.1538 13.579 18.106C13.5515 18.0927 13.5251 18.077 13.4988 18.0613C13.4725 18.0457 13.4475 18.028 13.4226 18.0102C13.3809 17.9785 13.3898 17.9859 13.4491 18.0325C13.4336 18.0191 13.4186 18.0053 13.4038 17.9911C13.3745 17.9635 13.2481 17.8053 13.3394 17.9304C13.3027 17.8801 13.2721 17.8254 13.2437 17.7697C13.2293 17.7414 13.191 17.6387 13.2429 17.7748C13.2316 17.7449 13.2226 17.7142 13.2136 17.6835C13.2045 17.6524 13.198 17.6206 13.1914 17.5889C13.1822 17.5336 13.1831 17.5461 13.1941 17.6266C13.1917 17.6045 13.1899 17.5824 13.1887 17.5603C13.1842 17.4932 13.1878 17.4259 13.1941 17.3592C13.1787 17.5209 13.2099 17.3148 13.2226 17.2715C13.2313 17.2416 13.2732 17.1378 13.2173 17.2734C13.2293 17.2442 13.2436 17.2162 13.2579 17.1882C13.2721 17.1603 13.2884 17.1336 13.3047 17.107C13.3158 17.0895 13.3274 17.0723 13.3393 17.0554C13.2935 17.1163 13.287 17.1261 13.32 17.0847C13.359 17.0369 13.4033 16.994 13.449 16.9533C13.3452 17.0457 13.4213 16.9764 13.4474 16.9578C13.4724 16.94 13.4988 16.9244 13.525 16.9088C13.5515 16.8931 13.579 16.8798 13.6066 16.8664C13.4804 16.9276 13.575 16.8824 13.6048 16.8719C13.6341 16.8616 13.6642 16.8539 13.6942 16.8462C13.7145 16.8413 13.7349 16.837 13.7555 16.8333C13.6781 16.8429 13.6663 16.8448 13.7203 16.8389C13.7843 16.8322 13.8488 16.8341 13.9128 16.8389C14.0255 16.8473 13.7983 16.8179 13.9083 16.8393C13.9388 16.8453 13.9688 16.8539 13.9988 16.8625C14.0284 16.8711 14.0573 16.8822 14.0861 16.8932C13.9567 16.8435 14.0525 16.879 14.0812 16.894C14.1083 16.9081 14.1342 16.9245 14.1601 16.9409C14.188 16.9584 14.2976 17.0492 14.1839 16.9534C14.2307 16.9929 14.2729 17.0381 14.313 17.0848C14.3847 17.1683 14.2484 16.9899 14.3112 17.081C14.3289 17.1067 14.3445 17.1337 14.3601 17.1607C14.3758 17.1879 14.3893 17.2163 14.4028 17.2447C14.4513 17.3464 14.363 17.134 14.4006 17.2412C14.4112 17.2714 14.4194 17.3026 14.4276 17.3336C14.4365 17.3674 14.4584 17.5185 14.4388 17.3593C14.4443 17.4035 14.4455 17.4483 14.4462 17.4929C14.4499 17.7698 14.6644 18.001 14.9321 18.001C15.1941 18.001 15.4218 17.7699 15.4181 17.4929C15.4081 16.7578 14.9675 16.1524 14.3158 15.9022C13.6558 15.6488 12.9277 15.9561 12.5184 16.5175C12.1249 17.0572 12.1199 17.8605 12.4826 18.4177C12.8736 19.0186 13.585 19.2966 14.2572 19.1032C14.9429 18.906 15.4081 18.2254 15.4181 17.4929C15.4218 17.2159 15.1941 16.9848 14.9321 16.9848C14.6643 16.9848 14.4499 17.216 14.4462 17.4929Z" fill="white"/>
<path d="M4.65327 10.9675C4.65327 9.96562 4.65327 8.96369 4.65327 7.96176C4.65327 6.62237 4.65327 5.28299 4.65327 3.94361C4.65327 3.84896 4.65327 3.75433 4.65327 3.65968C4.65327 3.32244 4.53463 3.02228 4.33877 2.76053C4.11796 2.46542 3.78569 2.31231 3.43842 2.26532C3.25239 2.24014 3.05734 2.25562 2.87046 2.25562C2.51592 2.25562 2.16141 2.25562 1.8069 2.25562C1.36658 2.25562 0.926266 2.25562 0.48595 2.25562C0.221038 2.25562 0 2.48674 0 2.76372C0 3.04071 0.221038 3.27183 0.48595 3.27183C1.01825 3.27183 1.55055 3.27183 2.08285 3.27183C2.40797 3.27183 2.7331 3.27183 3.05822 3.27183C3.1363 3.27183 3.21435 3.27183 3.29243 3.27183C3.33084 3.27183 3.36902 3.27362 3.40732 3.27732C3.26605 3.2637 3.36687 3.27437 3.40031 3.28286C3.43004 3.29041 3.45887 3.3013 3.48759 3.31214C3.35932 3.26372 3.45124 3.29764 3.48102 3.31419C3.50995 3.33028 3.62197 3.41661 3.50664 3.3223C3.55375 3.36082 3.59476 3.40679 3.6331 3.4545C3.54567 3.34567 3.60859 3.42537 3.62581 3.45409C3.64178 3.4808 3.65501 3.50916 3.6682 3.53744C3.60836 3.40901 3.65217 3.50115 3.66249 3.53478C3.67193 3.56551 3.67813 3.59721 3.68429 3.62876C3.6545 3.47654 3.68135 3.61772 3.68135 3.65893C3.68135 3.68525 3.68135 3.7116 3.68135 3.73795C3.68135 3.90233 3.68135 4.06672 3.68135 4.2311C3.68135 4.86998 3.68135 5.50886 3.68135 6.14773C3.68135 7.57236 3.68135 8.99695 3.68135 10.4216C3.68135 10.6036 3.68135 10.7855 3.68135 10.9675C3.68135 11.2445 3.90241 11.4756 4.1673 11.4756C4.43219 11.4756 4.65327 11.2445 4.65327 10.9675Z" fill="white"/>
<path d="M6.59069 9.05586C7.28134 9.05586 7.97197 9.05586 8.66262 9.05586C8.92751 9.05586 9.14857 8.82472 9.14857 8.54775C9.14857 8.27079 8.92751 8.03965 8.66262 8.03965C7.97197 8.03965 7.28134 8.03965 6.59069 8.03965C6.32578 8.03965 6.10474 8.27079 6.10474 8.54775C6.10474 8.82472 6.32578 9.05586 6.59069 9.05586Z" fill="white"/>
<path d="M6.5912 11.5064C7.6343 11.5064 8.67738 11.5064 9.72048 11.5064C10.6711 11.5064 11.6218 11.5064 12.5724 11.5064C12.8373 11.5064 13.0583 11.2753 13.0583 10.9983C13.0583 10.7214 12.8373 10.4902 12.5724 10.4902C11.5293 10.4902 10.4862 10.4902 9.4431 10.4902C8.49247 10.4902 7.54183 10.4902 6.5912 10.4902C6.32629 10.4902 6.10525 10.7214 6.10525 10.9983C6.10525 11.2753 6.32629 11.5064 6.5912 11.5064Z" fill="white"/>
<path d="M16.1452 15.7836C15.4133 15.7836 14.6814 15.7836 13.9496 15.7836C12.4719 15.7836 10.9942 15.7836 9.51659 15.7836C8.3701 15.7836 7.2236 15.7836 6.07711 15.7836C5.96844 15.7836 5.85975 15.7836 5.75108 15.7836C5.735 15.7836 5.71892 15.7836 5.70286 15.7836C5.6597 15.7836 5.61675 15.7812 5.57373 15.778C5.46032 15.7694 5.68856 15.798 5.57702 15.7797C5.54606 15.7746 5.5154 15.7675 5.48481 15.7605C5.42429 15.7465 5.36515 15.7268 5.30679 15.7052C5.20337 15.667 5.40932 15.7543 5.30952 15.7077C5.27242 15.6904 5.23655 15.6704 5.20092 15.65C5.14772 15.6196 5.09723 15.5843 5.04789 15.5476C5.16986 15.6384 5.01313 15.5136 4.98437 15.4853C4.94045 15.442 4.90028 15.3947 4.86154 15.3464C4.79221 15.2599 4.92724 15.4405 4.86457 15.3485C4.84113 15.3141 4.82 15.2781 4.79925 15.2419C4.76791 15.1872 4.74135 15.1297 4.7165 15.0716C4.77874 15.2173 4.7046 15.0202 4.69377 14.9805C4.67653 14.9175 4.66494 14.8531 4.65524 14.7884C4.67966 14.9513 4.6564 14.7326 4.6564 14.6896C4.6564 14.5897 4.6564 14.4898 4.6564 14.3899C4.6564 12.9966 4.6564 11.6032 4.6564 10.2099C4.6564 9.65154 4.6564 9.09321 4.6564 8.53486C4.6564 8.25787 4.43536 8.02675 4.17045 8.02675C3.90554 8.02675 3.6845 8.25787 3.6845 8.53486C3.6845 9.63313 3.6845 10.7314 3.6845 11.8297C3.6845 12.54 3.6845 13.2503 3.6845 13.9607C3.6845 14.4262 3.64377 14.9286 3.79416 15.3737C4.01032 16.0135 4.49273 16.4937 5.10671 16.706C5.32231 16.7805 5.55286 16.7998 5.77892 16.7998C6.1086 16.7998 6.43826 16.7998 6.76792 16.7998C8.11854 16.7998 9.46913 16.7998 10.8197 16.7998C12.1946 16.7998 13.5694 16.7998 14.9442 16.7998C15.3445 16.7998 15.7448 16.7998 16.1451 16.7998C16.41 16.7998 16.6311 16.5687 16.6311 16.2917C16.6311 16.0147 16.4101 15.7836 16.1452 15.7836Z" fill="white"/>
<path d="M20.0281 5.34054C20.0276 5.47567 20.0222 5.61044 20.0116 5.74513C20.0063 5.81157 19.9991 5.8778 19.9911 5.94392C20.0094 5.79173 19.9951 5.90891 19.9905 5.93995C19.9841 5.98338 19.9767 6.02664 19.9691 6.06986C19.9223 6.3363 19.8506 6.59761 19.7601 6.8513C19.7471 6.88759 19.6674 7.08706 19.7285 6.93821C19.7043 6.997 19.6785 7.055 19.652 7.11268C19.595 7.23716 19.5315 7.35828 19.4642 7.47696C19.4022 7.58606 19.335 7.69179 19.2649 7.79525C19.2437 7.82639 19.1195 7.9953 19.2137 7.86953C19.1702 7.9276 19.1248 7.98412 19.0788 8.03999C18.9144 8.23943 18.7322 8.42242 18.5382 8.59022C18.5149 8.61037 18.4912 8.63004 18.4676 8.64969C18.5771 8.55876 18.4928 8.62922 18.4699 8.64722C18.4214 8.68523 18.3719 8.72172 18.322 8.75765C18.2137 8.83573 18.1014 8.90761 17.9869 8.97536C17.8807 9.03822 17.7715 9.09534 17.6607 9.14886C17.633 9.16229 17.6049 9.17511 17.5769 9.18794C17.7068 9.12851 17.6066 9.17468 17.5797 9.18607C17.5131 9.21426 17.4456 9.24001 17.3778 9.26476C17.1323 9.3544 16.8787 9.41854 16.6221 9.46193C16.5925 9.46693 16.4791 9.4809 16.6247 9.46069C16.5932 9.46507 16.5627 9.47064 16.5311 9.47429C16.4675 9.48167 16.4037 9.48692 16.3398 9.49144C16.1959 9.50165 16.0516 9.50301 15.9075 9.49892C15.768 9.49495 15.6288 9.48254 15.4903 9.46507C15.6287 9.48256 15.5097 9.46744 15.4829 9.46316C15.449 9.45776 15.4152 9.45155 15.3814 9.44533C15.3029 9.43088 15.2251 9.41332 15.1475 9.39449C15.0159 9.36253 14.886 9.32273 14.7577 9.27833C14.6941 9.25629 14.6311 9.232 14.5685 9.20698C14.5372 9.19449 14.5063 9.18128 14.4754 9.1681C14.6068 9.22418 14.4643 9.16198 14.4386 9.14983C14.1873 9.03084 13.9482 8.88453 13.7223 8.71918C13.6954 8.69943 13.6688 8.67904 13.6422 8.65866C13.6215 8.64277 13.5308 8.56895 13.6359 8.65465C13.584 8.61233 13.5335 8.56827 13.4834 8.52363C13.3751 8.42695 13.2722 8.3237 13.1731 8.21676C13.0816 8.11797 12.9954 8.01398 12.9126 7.9072C12.8964 7.8863 12.8267 7.79083 12.9075 7.90157C12.8876 7.8742 12.8682 7.84638 12.8487 7.81855C12.8034 7.75354 12.7604 7.68683 12.7183 7.61947C12.646 7.50363 12.5799 7.38367 12.5177 7.2616C12.4776 7.18277 12.4404 7.10235 12.4046 7.02129C12.3993 7.00929 12.3433 6.87276 12.3854 6.9782C12.3646 6.92618 12.3455 6.87343 12.3267 6.82066C12.2696 6.66097 12.2231 6.49737 12.1831 6.33216C12.1629 6.24864 12.1461 6.16429 12.1304 6.07975C12.1225 6.03722 12.1157 5.99444 12.1089 5.95169C12.1045 5.92304 12.1003 5.89347 12.0964 5.86478C12.1044 5.92781 12.105 5.9304 12.098 5.87075C12.0619 5.54968 12.0614 5.22445 12.0889 4.90267C12.0923 4.86275 12.1199 4.64057 12.0977 4.80657C12.1064 4.74119 12.1172 4.67616 12.1285 4.61126C12.153 4.47202 12.1849 4.3343 12.2214 4.19798C12.2548 4.0735 12.2943 3.9509 12.3375 3.8298C12.3505 3.79351 12.4303 3.59402 12.3692 3.74287C12.3973 3.6743 12.4277 3.60677 12.459 3.5397C12.5699 3.30164 12.7026 3.07501 12.8505 2.86015C12.8681 2.83445 12.8863 2.80915 12.9045 2.78384C12.9696 2.6932 12.8354 2.87554 12.9028 2.78681C12.9404 2.73731 12.9794 2.68899 13.0189 2.64113C13.1043 2.53746 13.1951 2.43864 13.2889 2.34317C13.3755 2.255 13.4663 2.17148 13.5594 2.09093C13.5827 2.07078 13.6064 2.05111 13.6301 2.03146C13.5206 2.12239 13.6049 2.0519 13.6278 2.03393C13.6843 1.98955 13.7422 1.94721 13.8007 1.90569C14.0106 1.7566 14.2338 1.62866 14.4648 1.51907C14.4911 1.50659 14.592 1.46176 14.4612 1.51936C14.4895 1.5069 14.518 1.49507 14.5465 1.48324C14.6038 1.45951 14.6617 1.43763 14.7198 1.41639C14.8468 1.37003 14.9761 1.33117 15.1065 1.29708C15.2283 1.26524 15.3516 1.24017 15.4755 1.21922C15.5051 1.21421 15.6173 1.19836 15.4717 1.21857C15.5033 1.21419 15.5349 1.21051 15.5665 1.20686C15.6408 1.19824 15.7153 1.19239 15.7899 1.18765C15.9301 1.17874 16.0706 1.17838 16.2108 1.18295C16.2911 1.18557 16.3712 1.19154 16.4512 1.19863C16.4909 1.20216 16.5305 1.20676 16.5701 1.21141C16.6264 1.21871 16.6226 1.21799 16.5588 1.20925C16.5848 1.21315 16.6109 1.21731 16.6369 1.22169C16.9567 1.27417 17.2698 1.36761 17.5708 1.49137C17.6915 1.541 17.4773 1.44809 17.5961 1.50197C17.6311 1.51786 17.6658 1.5347 17.7004 1.55152C17.7695 1.5851 17.8374 1.62144 17.9047 1.65868C18.0527 1.74049 18.195 1.83294 18.3332 1.93148C18.3681 1.95641 18.4024 1.98232 18.4367 2.00821C18.4469 2.01593 18.558 2.10526 18.4728 2.03557C18.5315 2.08362 18.5885 2.13407 18.6448 2.1852C18.7588 2.2887 18.8666 2.39952 18.97 2.51445C19.0177 2.56751 19.0637 2.62231 19.1091 2.67764C19.1317 2.70532 19.1538 2.73356 19.1759 2.76177C19.1907 2.78072 19.264 2.88004 19.186 2.77365C19.2781 2.89935 19.3627 3.03095 19.4422 3.16571C19.5159 3.29073 19.5825 3.4202 19.6445 3.55187C19.6757 3.61805 19.7047 3.68536 19.7328 3.75298C19.681 3.62843 19.7289 3.74536 19.7376 3.76847C19.7551 3.81444 19.7714 3.86094 19.7874 3.90747C19.8893 4.20258 19.9588 4.50931 20.0017 4.81959C19.9816 4.67398 20.0034 4.84686 20.0062 4.87485C20.0112 4.92607 20.0149 4.97741 20.0183 5.02876C20.0253 5.13248 20.0277 5.23652 20.0281 5.34054C20.0292 5.6175 20.2483 5.84864 20.514 5.84864C20.7781 5.84864 21.0011 5.61753 21 5.34054C20.9947 3.98816 20.4856 2.68698 19.585 1.71682C18.6279 0.685641 17.2572 0.120607 15.8866 0.166675C14.747 0.204976 13.668 0.663914 12.8027 1.43325C11.983 2.16207 11.4061 3.20704 11.1973 4.3088C10.9362 5.68636 11.2127 7.15294 11.9903 8.30343C12.6847 9.33076 13.7164 10.0799 14.8892 10.3744C16.0424 10.664 17.2606 10.4998 18.3163 9.94295C19.2693 9.4402 20.0636 8.5764 20.5174 7.56786C20.8316 6.86973 20.9973 6.11283 21 5.34054C21.0009 5.06355 20.7782 4.83243 20.514 4.83243C20.2484 4.83243 20.029 5.06357 20.0281 5.34054Z" fill="white"/>
<path d="M17.8097 3.4714C16.9932 4.32506 16.1768 5.17875 15.3603 6.03243C15.2152 6.18424 15.0699 6.33604 14.9248 6.48784C15.1538 6.48784 15.3829 6.48784 15.612 6.48784C15.1698 6.02544 14.7275 5.56302 14.2853 5.10062C14.098 4.90486 13.7853 4.90486 13.598 5.10062C13.4108 5.29636 13.4108 5.62344 13.598 5.81918C14.0403 6.28157 14.4825 6.744 14.9248 7.20639C15.112 7.40216 15.4248 7.40216 15.612 7.20639C16.4285 6.35273 17.2449 5.49905 18.0614 4.64536C18.2065 4.49356 18.3517 4.34176 18.4969 4.18996C18.6841 3.99422 18.6841 3.66714 18.4969 3.4714C18.3097 3.27564 17.9969 3.27564 17.8097 3.4714Z" fill="white"/>
</svg>
