<svg width="14" height="14" viewBox="0 0 14 14" fill="none" xmlns="http://www.w3.org/2000/svg">
<g id="Layer_1" clipPath="url(#clip0_3452_28466)">
<path id="Vector" d="M0.000385604 6.80257C0.0167156 6.73571 0.0348637 6.66979 0.0493793 6.60245C0.193628 5.92156 0.693052 5.57594 1.31042 5.51614C1.57986 5.49024 1.57986 5.49966 1.64927 5.23361C1.95409 4.05862 2.25923 2.88425 2.56466 1.71051C2.67579 1.2839 2.86404 0.910023 3.25188 0.682118C3.6243 0.463161 4.01622 0.465046 4.41494 0.57476C6.03434 1.01864 7.65313 1.4644 9.27132 1.91205C10.443 2.23554 11.6165 2.55197 12.7845 2.88818C13.4028 3.06617 13.7952 3.56294 13.8124 4.17414C13.8139 4.39782 13.7848 4.62058 13.7258 4.83572C13.367 6.24835 12.9973 7.65439 12.6321 9.06325C12.5296 9.45785 12.3831 9.82843 12.0452 10.07C11.9091 10.1684 11.7462 10.232 11.5788 10.3205C11.5788 10.7259 11.5788 11.1554 11.5788 11.5843C11.5788 11.9704 11.509 12.3377 11.2613 12.6447C10.9329 13.0539 10.4847 13.1627 10.0021 13.1627C8.39176 13.1662 6.78159 13.1662 5.17157 13.1627C3.97494 13.1627 2.77846 13.1627 1.58213 13.1627C1.32548 13.1688 1.07012 13.1233 0.830044 13.029C0.364638 12.835 0.118777 12.4667 0.0276012 11.9695C0.0198898 11.929 0.0085493 11.889 -0.000976562 11.8485L0.000385604 6.80257ZM5.81252 12.6179C7.19755 12.6179 8.58258 12.6179 9.96761 12.6179C10.0756 12.6188 10.1836 12.6137 10.291 12.6028C10.7034 12.5557 10.9769 12.2911 11.0454 11.8697C11.0705 11.7183 11.0838 11.5651 11.0853 11.4115C11.0886 9.99198 11.0886 8.57244 11.0853 7.15291C11.0865 7.03625 11.0796 6.91964 11.0649 6.80399C11.015 6.44282 10.8281 6.19185 10.4852 6.09155C10.3288 6.04926 10.1677 6.02868 10.0062 6.03034C7.21373 6.02657 4.42099 6.02657 1.62795 6.03034C1.52454 6.03018 1.42123 6.03663 1.31859 6.04964C0.920314 6.1005 0.644971 6.36278 0.575568 6.7649C0.556506 6.88946 0.547852 7.0155 0.549709 7.14161C0.549709 8.5985 0.549709 10.0552 0.549709 11.5118C0.549395 11.6146 0.554999 11.7172 0.566493 11.8193C0.611854 12.2002 0.803279 12.4625 1.16254 12.5642C1.31507 12.6031 1.47183 12.6211 1.62886 12.6179C3.02386 12.6201 4.41842 12.6201 5.81252 12.6179ZM3.00738 2.02318L13.2014 4.82772C13.2318 4.70341 13.2608 4.60076 13.2817 4.4981C13.3878 3.9759 13.1878 3.60344 12.7052 3.41509C12.6421 3.39107 12.5777 3.37035 12.5124 3.35246C10.0429 2.67095 7.57299 1.99053 5.10262 1.31121C4.74 1.20425 4.37222 1.11718 4.0008 1.05034C3.70005 1.00326 3.41972 1.11015 3.25778 1.39738C3.15163 1.58385 3.09312 1.80186 3.00738 2.02129V2.02318ZM13.0558 5.35369L2.88219 2.55385C2.79146 2.91313 2.7089 3.24887 2.62453 3.58978C2.68033 3.60767 2.71843 3.62133 2.75653 3.63216C4.63419 4.15515 6.51154 4.67782 8.38859 5.20018C8.9674 5.36028 9.53577 5.56888 10.1545 5.52979C10.4641 5.50221 10.772 5.60046 11.0132 5.80384C11.2087 5.97571 11.4287 6.04917 11.6641 6.10568C11.7167 6.11839 11.7685 6.1344 11.8206 6.14853L12.7823 6.40751C12.8753 6.05058 12.9633 5.71014 13.0558 5.3518V5.35369ZM7.42058 5.50154L7.42602 5.47847L2.49253 4.12093L2.13236 5.50154H7.42058ZM12.6639 6.90381L11.5861 6.61328V9.72907C11.6991 9.68585 11.8008 9.61596 11.8833 9.52493C11.9658 9.43389 12.0268 9.32421 12.0615 9.20452C12.1522 8.92717 12.2225 8.64276 12.296 8.35694C12.4198 7.879 12.5396 7.39494 12.6639 6.90193V6.90381Z" fill="white"/>
<path id="Vector_2" d="M5.81244 12.617C4.41804 12.617 3.02379 12.617 1.62968 12.617C1.47266 12.6202 1.3159 12.6022 1.16337 12.5633C0.804109 12.4616 0.611323 12.1993 0.567323 11.8183C0.555829 11.7163 0.550225 11.6136 0.550539 11.5109C0.550539 10.0543 0.550539 8.59755 0.550539 7.14066C0.548681 7.01455 0.557335 6.88852 0.576398 6.76396C0.645801 6.36183 0.921144 6.09955 1.31942 6.0487C1.42206 6.03569 1.52537 6.02924 1.62878 6.02939C4.42182 6.02939 7.21456 6.02939 10.007 6.02939C10.1686 6.02773 10.3296 6.04832 10.486 6.0906C10.8289 6.18855 11.0158 6.44188 11.0657 6.80304C11.0805 6.9187 11.0873 7.0353 11.0861 7.15196C11.0861 8.57181 11.0861 9.99135 11.0861 11.4106C11.0846 11.5642 11.0713 11.7174 11.0462 11.8687C10.9777 12.2925 10.7042 12.5539 10.2919 12.6019C10.1844 12.6128 10.0764 12.6178 9.96844 12.617C8.58311 12.6176 7.19777 12.6176 5.81244 12.617ZM3.421 9.12682C3.85238 9.12682 4.28287 9.13058 4.71606 9.12682C5.12432 9.12258 5.35475 8.89138 5.36155 8.47135C5.3679 8.08382 5.36881 7.69629 5.36155 7.30876C5.35339 6.90192 5.12658 6.66649 4.7342 6.66366C3.86176 6.65864 2.98946 6.65864 2.11732 6.66366C1.72676 6.66649 1.49768 6.90804 1.49178 7.31206C1.48634 7.70383 1.48634 8.09622 1.49178 8.48925C1.49677 8.87301 1.71859 9.10516 2.08556 9.12682C2.13501 9.12964 2.18445 9.12682 2.23389 9.12682H3.421ZM5.81789 10.2433H1.59566C1.5503 10.2433 1.50494 10.2433 1.45958 10.2433C1.29719 10.2527 1.18741 10.3633 1.18741 10.5135C1.18741 10.6638 1.29673 10.7664 1.4505 10.7791C1.4818 10.7815 1.51356 10.7791 1.54486 10.7791H10.0728C10.1266 10.7811 10.1805 10.7767 10.2334 10.7659C10.2903 10.7502 10.3402 10.7144 10.3746 10.6647C10.409 10.615 10.4258 10.5545 10.4221 10.4934C10.4183 10.4324 10.3943 10.3745 10.3541 10.3298C10.3139 10.285 10.26 10.2561 10.2016 10.248C10.1478 10.2428 10.0937 10.2409 10.0397 10.2423L5.81789 10.2433ZM4.51919 11.703H5.47677C5.719 11.703 5.84692 11.6126 5.85281 11.4388C5.85871 11.2651 5.72127 11.1563 5.47858 11.1563C4.83566 11.1563 4.1929 11.1563 3.55028 11.1563C3.49199 11.1548 3.43373 11.16 3.37655 11.1718C3.32041 11.1814 3.26956 11.2119 3.23349 11.2576C3.19743 11.3032 3.17862 11.361 3.18058 11.42C3.17378 11.5947 3.289 11.6992 3.49448 11.7025C3.83469 11.7039 4.17762 11.7025 4.51919 11.7025V11.703ZM1.94041 11.703C2.09328 11.703 2.2466 11.7072 2.39901 11.703C2.58045 11.6973 2.69794 11.582 2.69431 11.4261C2.69068 11.2702 2.58 11.1643 2.40264 11.1605C2.09691 11.1543 1.79117 11.1543 1.48543 11.1605C1.30399 11.1638 1.18696 11.2797 1.19059 11.4365C1.19421 11.5933 1.31125 11.6987 1.49542 11.7035C1.64375 11.7053 1.79344 11.702 1.94041 11.702V11.703Z" fill="#19191C"/>
<path id="Vector_3" d="M3.00732 2.02095C3.09306 1.80153 3.15157 1.58351 3.25772 1.39516C3.41966 1.10793 3.69999 1.0001 4.00074 1.04813C4.37216 1.11496 4.73994 1.20203 5.10256 1.30899C7.57293 1.98705 10.0429 2.66747 12.5123 3.35024C12.5776 3.36813 12.6421 3.38885 12.7051 3.41287C13.1877 3.59745 13.3855 3.9718 13.2816 4.49588C13.2608 4.60042 13.2317 4.70307 13.2014 4.8255L3.00732 2.02095Z" fill="#19191C"/>
<path id="Vector_4" d="M13.0554 5.35203C12.9647 5.71036 12.874 6.05081 12.7832 6.40443L11.8216 6.14545C11.7694 6.13133 11.7177 6.11532 11.6651 6.1026C11.4297 6.0461 11.2115 5.97264 11.0141 5.80077C10.7729 5.59739 10.4651 5.49914 10.1555 5.52672C9.53673 5.56721 8.96835 5.35862 8.38954 5.19711C6.51098 4.67757 4.63363 4.1549 2.75749 3.62909C2.71939 3.61826 2.68128 3.6046 2.62549 3.58671C2.70986 3.24768 2.79333 2.91194 2.88314 2.55078L13.0554 5.35203Z" fill="#19191C"/>
<path id="Vector_5" d="M7.42005 5.49975H2.13184L2.49201 4.11914L7.4255 5.47762L7.42005 5.49975Z" fill="#19191C"/>
<path id="Vector_6" d="M12.6637 6.90186C12.5394 7.39487 12.4197 7.87704 12.2958 8.35734C12.2224 8.63986 12.1525 8.92521 12.0613 9.20491C12.0267 9.3246 11.9657 9.4343 11.8832 9.52533C11.8007 9.61636 11.6989 9.68625 11.5859 9.72947V6.61133L12.6637 6.90186Z" fill="#19191C"/>
<path id="Vector_7" d="M3.42064 9.12708H2.23353C2.18409 9.12708 2.13464 9.12708 2.0852 9.12708C1.71687 9.10542 1.4955 8.87328 1.49142 8.48951C1.48658 8.09712 1.48658 7.70472 1.49142 7.31232C1.49732 6.90831 1.72639 6.66675 2.11696 6.66392C2.9891 6.6589 3.86139 6.6589 4.73384 6.66392C5.12622 6.66675 5.35303 6.90219 5.36119 7.30902C5.36845 7.69656 5.36754 8.08409 5.36119 8.47162C5.35439 8.89164 5.12531 9.12284 4.7157 9.12708C4.28386 9.13038 3.85202 9.12661 3.42064 9.12708ZM3.42064 8.59781C3.84749 8.59781 4.27479 8.59781 4.70164 8.59781C4.80733 8.59781 4.84226 8.56344 4.84045 8.45279C4.8344 8.08393 4.8344 7.71523 4.84045 7.34669C4.84045 7.23792 4.80824 7.19602 4.70436 7.19649C3.85459 7.19837 3.00498 7.19837 2.15551 7.19649C2.05299 7.19649 2.01399 7.23368 2.0158 7.34434C2.0217 7.70362 2.02306 8.06337 2.0158 8.42265C2.01308 8.55497 2.04846 8.60158 2.18092 8.59923C2.59234 8.59311 3.00603 8.59828 3.41973 8.59781H3.42064Z" fill="white"/>
<path id="Vector_8" d="M5.81754 10.2446H10.0398C10.0938 10.2432 10.1479 10.2451 10.2017 10.2502C10.2601 10.2584 10.314 10.2873 10.3542 10.3321C10.3944 10.3768 10.4184 10.4347 10.4222 10.4957C10.4259 10.5568 10.4091 10.6173 10.3747 10.667C10.3403 10.7167 10.2904 10.7524 10.2335 10.7682C10.1806 10.779 10.1267 10.7834 10.0729 10.7814H1.54497C1.51367 10.7814 1.48191 10.7814 1.45061 10.7814C1.29684 10.7687 1.18934 10.6594 1.18752 10.5158C1.18571 10.3722 1.29548 10.255 1.45969 10.2455C1.50505 10.2427 1.55041 10.2455 1.59577 10.2455L5.81754 10.2446Z" fill="white"/>
<path id="Vector_9" d="M4.51907 11.7027C4.1775 11.7027 3.83593 11.7027 3.49436 11.7027C3.28888 11.7027 3.17366 11.5968 3.18046 11.4202C3.1785 11.3612 3.1973 11.3034 3.23337 11.2577C3.26943 11.2121 3.32029 11.1816 3.37642 11.172C3.43361 11.1602 3.49187 11.155 3.55016 11.1565C4.19308 11.1565 4.83584 11.1565 5.47846 11.1565C5.72115 11.1565 5.85859 11.261 5.85269 11.439C5.8468 11.617 5.71661 11.7027 5.47665 11.7032L4.51907 11.7027Z" fill="white"/>
<path id="Vector_10" d="M1.94032 11.7034C1.79198 11.7034 1.64366 11.7067 1.49533 11.7034C1.31116 11.6987 1.19367 11.5932 1.19049 11.4364C1.18732 11.2796 1.30254 11.1638 1.48534 11.1605C1.79108 11.1548 2.09682 11.1548 2.40255 11.1605C2.57991 11.1643 2.69014 11.273 2.69422 11.4261C2.6983 11.5791 2.57946 11.6973 2.39892 11.7029C2.24696 11.7076 2.09318 11.7034 1.94032 11.7034Z" fill="white"/>
<path id="Vector_11" d="M3.42005 8.59914C3.00635 8.59914 2.59266 8.59396 2.17942 8.60196C2.04696 8.60196 2.01158 8.5577 2.0143 8.42538C2.02201 8.06611 2.02065 7.70636 2.0143 7.34708C2.0143 7.23642 2.0515 7.19875 2.15401 7.19922C3.00378 7.20111 3.8534 7.20111 4.70286 7.19922C4.8072 7.19922 4.83895 7.24066 4.83895 7.34943C4.8329 7.71829 4.8329 8.08698 4.83895 8.45552C4.83895 8.56618 4.80583 8.60196 4.70014 8.60055C4.2742 8.59631 3.8469 8.59867 3.42005 8.59914Z" fill="#19191C"/>
</g>
<defs>
<clipPath id="clip0_3452_28466">
<rect width="13.8129" height="12.6619" fill="white" transform="translate(0 0.5)"/>
</clipPath>
</defs>
</svg>
