<svg width="304" height="204" viewBox="0 0 304 204" fill="none" xmlns="http://www.w3.org/2000/svg">
<path d="M59.866 12.3685C41.7404 10.2114 34.2279 40.6808 56.0898 46.0737C28.861 43.6469 31.8436 59.8254 44.762 70.8807H8.98789C-2.73809 70.8807 1.83305 82.7449 7.79543 82.7449C-6.91174 95.6877 3.82045 120.764 14.3534 120.764C-8.70048 128.314 2.03187 163.637 15.9434 163.637H290.212C306.509 160.132 305.515 121.573 290.212 118.607C310.086 116.18 303.528 73.8467 286.436 76.8128C288.185 69.4786 282.13 68.9033 278.883 69.5325C292.001 61.9825 285.641 46.0737 278.883 46.0737H235.828C255.106 46.0737 261.208 9.16924 221.844 12.3685H59.866Z" fill="#1F1F1F"/>
<path d="M133.119 148.425C136.447 148.425 139.146 145.727 139.146 142.398C139.146 139.069 136.447 136.371 133.119 136.371C129.79 136.371 127.092 139.069 127.092 142.398C127.092 145.727 129.79 148.425 133.119 148.425Z" stroke="#186CED" stroke-width="2.71936" stroke-linecap="round" stroke-linejoin="round"/>
<path d="M199.416 148.425C202.744 148.425 205.443 145.727 205.443 142.398C205.443 139.069 202.744 136.371 199.416 136.371C196.087 136.371 193.389 139.069 193.389 142.398C193.389 145.727 196.087 148.425 199.416 148.425Z" stroke="#186CED" stroke-width="2.71936" stroke-linecap="round" stroke-linejoin="round"/>
<path d="M84.9023 21.8594H109.01L125.162 102.56C125.713 105.335 127.223 107.827 129.427 109.601C131.63 111.375 134.388 112.318 137.216 112.263H195.798C198.627 112.318 201.384 111.375 203.588 109.601C205.791 107.827 207.301 105.335 207.852 102.56L217.495 51.9941H115.037" stroke="#186CED" stroke-width="2.71936" stroke-linecap="round" stroke-linejoin="round"/>
<g clipPath="url(#clip0_3688_29885)">
<path d="M167.594 84.3457C174.66 84.4751 179.961 87.2462 183.787 92.8069C184.019 93.1451 184.23 93.4978 184.419 93.8627C184.971 94.9319 184.635 96.1522 183.65 96.7226C183.408 96.8655 183.14 96.9578 182.863 96.9938C182.585 97.0298 182.302 97.0089 182.033 96.9322C181.763 96.8556 181.512 96.7249 181.294 96.5479C181.076 96.371 180.896 96.1515 180.765 95.9027C179.497 93.6648 177.653 91.8101 175.427 90.5325C169.188 86.9232 159.7 88.054 155.152 95.7769C154.463 96.9463 153.254 97.3314 152.194 96.7176C151.145 96.11 150.828 94.8451 151.525 93.6854C154.587 88.5944 159.031 85.5264 164.896 84.5997C165.904 84.4403 166.932 84.4057 167.594 84.3457Z" fill="#186CED"/>
<path d="M157.429 78.0295C156.604 78.0258 155.799 77.7769 155.114 77.3144C154.43 76.8518 153.897 76.1962 153.582 75.4301C153.268 74.6639 153.186 73.8215 153.347 73.0087C153.508 72.196 153.905 71.4493 154.488 70.8626C155.071 70.276 155.813 69.8756 156.622 69.7118C157.43 69.548 158.269 69.6281 159.033 69.9422C159.796 70.2562 160.45 70.7901 160.912 71.4766C161.374 72.1631 161.624 72.9716 161.63 73.8002C161.635 74.3562 161.53 74.9077 161.321 75.4226C161.112 75.9374 160.803 76.4053 160.412 76.7989C160.021 77.1926 159.556 77.5041 159.044 77.7154C158.531 77.9267 157.983 78.0334 157.429 78.0295Z" fill="#186CED"/>
<path d="M178.361 78.0295C177.536 78.0192 176.732 77.7639 176.051 77.2957C175.37 76.8275 174.842 76.1673 174.534 75.3983C174.226 74.6293 174.151 73.7859 174.319 72.9742C174.487 72.1626 174.89 71.419 175.478 70.8372C176.066 70.2554 176.812 69.8613 177.623 69.7046C178.433 69.5479 179.272 69.6356 180.033 69.9567C180.794 70.2777 181.443 70.8178 181.899 71.5088C182.355 72.1998 182.597 73.0109 182.595 73.8399C182.592 74.3946 182.481 74.9434 182.266 75.4546C182.052 75.9659 181.739 76.4295 181.345 76.8188C180.952 77.2082 180.486 77.5156 179.974 77.7233C179.462 77.9311 178.914 78.0351 178.361 78.0295Z" fill="#186CED"/>
</g>
<path d="M8.99316 12.4228L23.2964 4.47656" stroke="#434343" stroke-width="1.81291"/>
<path d="M16.1445 0.105469V16.7926" stroke="#434343" stroke-width="1.81291"/>
<path d="M8.5957 4.47656L24.0909 12.4228" stroke="#434343" stroke-width="1.81291"/>
<path d="M284.936 198.299L302.029 188.803" stroke="#434343" stroke-width="1.81291"/>
<path d="M293.481 183.58V203.522" stroke="#434343" stroke-width="1.81291"/>
<path d="M284.46 188.803L302.978 198.299" stroke="#434343" stroke-width="1.81291"/>
<path d="M250.033 5.28143L255.613 2.18164" stroke="#434343" stroke-width="0.591779"/>
<path d="M252.822 0.476562V6.98613" stroke="#434343" stroke-width="0.591779"/>
<path d="M249.878 2.18164L255.923 5.28143" stroke="#434343" stroke-width="0.591779"/>
<path d="M21.5059 201.55L24.3811 199.953" stroke="#434343" stroke-width="0.906455"/>
<path d="M22.9443 199.074V202.429" stroke="#434343" stroke-width="0.906455"/>
<path d="M21.4258 199.953L24.5406 201.55" stroke="#434343" stroke-width="0.906455"/>
<path d="M25.5107 184.195L28.386 182.598" stroke="#434343" stroke-width="0.906455"/>
<path d="M26.9482 181.721V185.075" stroke="#434343" stroke-width="0.906455"/>
<path d="M25.4307 182.598L28.5455 184.195" stroke="#434343" stroke-width="0.906455"/>
<path d="M20.4746 187.651H38.456C39.6194 187.651 40.7267 187.01 41.0991 185.908C43.6651 178.315 34.3673 176.981 31.7928 182.13" stroke="#434343" stroke-width="0.906455"/>
<path d="M20.0908 195.069H44.9174C45.9331 195.069 46.9221 195.556 47.3807 196.463C51.2998 204.206 38.6254 205.627 35.1512 200.495" stroke="#434343" stroke-width="0.906455"/>
<path d="M44.0771 190.783C46.6578 186.812 55.9371 187.811 53.5072 193.609C53.1065 194.565 52.0847 195.067 51.0481 195.067H39.2246" stroke="#434343" stroke-width="0.906455"/>
<path d="M266.462 32.962L268.851 31.6348" stroke="#434343" stroke-width="0.906455"/>
<path d="M267.658 30.9043V33.6915" stroke="#434343" stroke-width="0.906455"/>
<path d="M266.396 31.6348L268.985 32.962" stroke="#434343" stroke-width="0.906455"/>
<path d="M269.791 18.5421L272.18 17.2148" stroke="#434343" stroke-width="0.906455"/>
<path d="M270.985 16.4844V19.2716" stroke="#434343" stroke-width="0.906455"/>
<path d="M269.724 17.2148L272.312 18.5421" stroke="#434343" stroke-width="0.906455"/>
<path d="M265.605 21.4134H280.226C281.389 21.4134 282.511 20.7729 282.84 19.6572C284.621 13.6208 277.114 12.6181 275.01 16.826" stroke="#434343" stroke-width="0.906455"/>
<path d="M265.287 27.5766H285.641C286.657 27.5766 287.655 28.0562 288.08 28.9783C290.951 35.1982 280.651 36.295 277.801 32.0852" stroke="#434343" stroke-width="0.906455"/>
<path d="M285.217 24.0178C287.323 20.7781 294.793 21.5192 293.154 26.1068C292.805 27.0829 291.766 27.5773 290.729 27.5773H281.186" stroke="#434343" stroke-width="0.906455"/>
<defs>
<clipPath id="clip0_3688_29885">
<rect width="33.5307" height="27.3834" fill="white" transform="translate(151.152 69.6289)"/>
</clipPath>
</defs>
</svg>
