<svg
        width={12}
        height={13}
        viewBox="0 0 12 13"
        fill="none"
        xmlns="http://www.w3.org/2000/svg"
        className="flex-grow-0 flex-shrink-0 w-3 h-3 relative"
        preserveAspectRatio="xMidYMid meet"
      >
        <path
          d="M6 6.5C6.275 6.5 6.5105 6.402 6.7065 6.206C6.90217 6.01033 7 5.775 7 5.5C7 5.225 6.90217 4.9895 6.7065 4.7935C6.5105 4.59783 6.275 4.5 6 4.5C5.725 4.5 5.48967 4.59783 5.294 4.7935C5.098 4.9895 5 5.225 5 5.5C5 5.775 5.098 6.01033 5.294 6.206C5.48967 6.402 5.725 6.5 6 6.5ZM6 10.175C7.01667 9.24167 7.77083 8.39367 8.2625 7.631C8.75417 6.86867 9 6.19167 9 5.6C9 4.69167 8.71033 3.94783 8.131 3.3685C7.552 2.7895 6.84167 2.5 6 2.5C5.15833 2.5 4.44783 2.7895 3.8685 3.3685C3.2895 3.94783 3 4.69167 3 5.6C3 6.19167 3.24583 6.86867 3.7375 7.631C4.22917 8.39367 4.98333 9.24167 6 10.175ZM6 11.3125C5.93333 11.3125 5.86667 11.3 5.8 11.275C5.73333 11.25 5.675 11.2167 5.625 11.175C4.40833 10.1 3.5 9.10217 2.9 8.1815C2.3 7.2605 2 6.4 2 5.6C2 4.35 2.40217 3.35417 3.2065 2.6125C4.0105 1.87083 4.94167 1.5 6 1.5C7.05833 1.5 7.9895 1.87083 8.7935 2.6125C9.59783 3.35417 10 4.35 10 5.6C10 6.4 9.7 7.2605 9.1 8.1815C8.5 9.10217 7.59167 10.1 6.375 11.175C6.325 11.2167 6.26667 11.25 6.2 11.275C6.13333 11.3 6.06667 11.3125 6 11.3125Z"
          fill="white"
          fillOpacity="0.64"
        />
      </svg>