<svg width="22" height="22" viewBox="0 0 22 22" fill="none" xmlns="http://www.w3.org/2000/svg">
<path d="M11 2.75L11.2343 2.28149L11 2.16436L10.7657 2.28149L11 2.75ZM19.25 6.875H19.7738V6.55127L19.4843 6.40649L19.25 6.875ZM19.25 15.125L19.4843 15.5935L19.7738 15.4487V15.125H19.25ZM11 19.25L10.7657 19.7185L11 19.8356L11.2343 19.7185L11 19.25ZM2.75 15.125H2.22619V15.4487L2.51575 15.5935L2.75 15.125ZM2.75 6.875L2.51575 6.40649L2.22619 6.55127V6.875H2.75ZM15.0595 11.9167C15.0595 12.206 15.294 12.4405 15.5833 12.4405C15.8726 12.4405 16.1071 12.206 16.1071 11.9167H15.0595ZM15.5833 8.70833H16.1071V8.3846L15.8176 8.23982L15.5833 8.70833ZM7.56759 4.11482C7.30884 3.98545 6.9942 4.09033 6.86482 4.34908C6.73545 4.60783 6.84033 4.92247 7.09908 5.05184L7.56759 4.11482ZM10.4762 18.7917C10.4762 19.081 10.7107 19.3155 11 19.3155C11.2893 19.3155 11.5238 19.081 11.5238 18.7917H10.4762ZM10.7657 3.21851L19.0157 7.34351L19.4843 6.40649L11.2343 2.28149L10.7657 3.21851ZM18.7262 6.875V15.125H19.7738V6.875H18.7262ZM19.0157 14.6565L10.7657 18.7815L11.2343 19.7185L19.4843 15.5935L19.0157 14.6565ZM11.2343 18.7815L2.98425 14.6565L2.51575 15.5935L10.7657 19.7185L11.2343 18.7815ZM3.27381 15.125V6.875H2.22619V15.125H3.27381ZM2.98425 7.34351L11.2343 3.21851L10.7657 2.28149L2.51575 6.40649L2.98425 7.34351ZM19.0157 6.40649L10.7657 10.5315L11.2343 11.4685L19.4843 7.34351L19.0157 6.40649ZM11.2343 10.5315L2.98425 6.40649L2.51575 7.34351L10.7657 11.4685L11.2343 10.5315ZM16.1071 11.9167V8.70833H15.0595V11.9167H16.1071ZM15.8176 8.23982L7.56759 4.11482L7.09908 5.05184L15.3491 9.17684L15.8176 8.23982ZM11.5238 18.7917V11H10.4762V18.7917H11.5238Z" fill="white"/>
</svg>
