<svg width="155" height="184" viewBox="0 0 155 184" fill="none" xmlns="http://www.w3.org/2000/svg">
<path d="M65.1266 168.656L65.9351 161.372H10.4152C9.36419 161.372 8.35634 160.954 7.61318 160.211C6.87002 159.468 6.45236 158.46 6.45201 157.409V23.8741C6.45236 22.8231 6.87002 21.8153 7.61318 21.0721C8.35634 20.3289 9.36419 19.9113 10.4152 19.9109H94.0934C95.1444 19.9113 96.1523 20.329 96.8954 21.0721C97.6386 21.8153 98.0562 22.8231 98.0566 23.8741V86.6784C99.8635 85.156 101.903 83.9331 104.096 83.056V12.9595C104.096 9.52246 102.731 6.22615 100.301 3.79576C97.8703 1.36538 94.574 0 91.1369 0H13.3717C9.93457 0 6.63826 1.36538 4.20787 3.79576C1.77749 6.22615 0.412109 9.52246 0.412109 12.9595V168.538C0.412109 171.975 1.77749 175.271 4.20787 177.701C6.63826 180.132 9.93457 181.497 13.3717 181.497H68.6578C65.8832 177.825 64.6196 173.231 65.1266 168.656ZM61.322 173.484H43.1865V168.728H61.322V173.484Z" fill="white"/>
<path d="M36.8288 55.0592C36.6808 56.8941 36.0013 58.6461 34.8734 60.1009C33.7456 61.5558 32.2181 62.6505 30.478 63.251C28.7379 63.8516 26.8604 63.9321 25.0753 63.4826C23.2901 63.0331 21.6747 62.0731 20.4264 60.7201C19.1782 59.367 18.3513 57.6796 18.0469 55.8641C17.7425 54.0485 17.9737 52.1837 18.7123 50.4975C19.4509 48.8113 20.6649 47.3769 22.2058 46.3697C23.7467 45.3625 25.5477 44.8262 27.3886 44.8263V40.4668C24.6858 40.4667 22.0423 41.2585 19.7846 42.7444C17.527 44.2303 15.7543 46.3452 14.6855 48.8277C13.6168 51.3101 13.2989 54.0513 13.7711 56.7125C14.2433 59.3737 15.4849 61.8382 17.3426 63.8013C19.2002 65.7645 21.5923 67.1404 24.2234 67.7588C26.8544 68.3773 29.609 68.2112 32.1467 67.2811C34.6844 66.3511 36.8939 64.6979 38.5022 62.5257C40.1105 60.3536 41.0471 57.7578 41.1962 55.0592H36.8288Z" fill="white"/>
<path d="M23.5609 49.7577L20.0505 52.9662L25.277 58.6841C25.498 58.926 25.7667 59.1195 26.0661 59.2527C26.3655 59.3858 26.6891 59.4556 27.0168 59.4578H27.0322C27.3573 59.4578 27.6789 59.3911 27.9771 59.262C28.2754 59.1329 28.5441 58.944 28.7665 58.707L39.8613 46.8811L36.3928 43.627L27.055 53.5801L23.5609 49.7577Z" fill="white"/>
<path d="M36.8289 92.7506C36.6809 94.5855 36.0014 96.3375 34.8735 97.7924C33.7456 99.2472 32.2182 100.342 30.4781 100.942C28.7379 101.543 26.8605 101.623 25.0754 101.174C23.2902 100.724 21.6748 99.7645 20.4265 98.4115C19.1783 97.0584 18.3514 95.371 18.047 93.5555C17.7426 91.74 17.9738 89.8751 18.7124 88.1889C19.451 86.5027 20.665 85.0683 22.2059 84.0611C23.7468 83.0539 25.5478 82.5176 27.3886 82.5177V78.1582C24.6859 78.1581 22.0423 78.9499 19.7847 80.4358C17.527 81.9217 15.7543 84.0366 14.6855 86.5191C13.6168 89.0015 13.2989 91.7428 13.7711 94.404C14.2433 97.0651 15.4849 99.5296 17.3426 101.493C19.2002 103.456 21.5924 104.832 24.2234 105.45C26.8545 106.069 29.6091 105.903 32.1467 104.973C34.6844 104.043 36.894 102.389 38.5023 100.217C40.1106 98.045 41.0472 95.4492 41.1963 92.7506H36.8289Z" fill="white"/>
<path d="M23.5609 87.4373L20.0505 90.6458L25.277 96.3638C25.498 96.6056 25.7667 96.7992 26.0661 96.9323C26.3655 97.0654 26.6891 97.1353 27.0168 97.1374H27.0322C27.3573 97.1374 27.6789 97.0708 27.9772 96.9416C28.2754 96.8125 28.5441 96.6236 28.7665 96.3866L39.8614 84.5608L36.3929 81.3066L27.055 91.2598L23.5609 87.4373Z" fill="white"/>
<path d="M13.5583 129.671C13.5594 133.273 14.9651 136.732 17.4768 139.313C19.9885 141.894 23.4078 143.393 27.0079 143.492C30.6079 143.591 34.1046 142.282 36.7545 139.843C39.4043 137.404 40.9983 134.028 41.1975 130.432H36.8301C36.6821 132.267 36.0026 134.019 34.8747 135.474C33.7468 136.929 32.2194 138.024 30.4792 138.624C28.7391 139.225 26.8617 139.305 25.0765 138.856C23.2914 138.406 21.6759 137.446 20.4277 136.093C19.1794 134.74 18.3526 133.053 18.0481 131.237C17.7437 129.422 17.975 127.557 18.7136 125.871C19.4522 124.184 20.6662 122.75 22.2071 121.743C23.7479 120.736 25.5489 120.199 27.3898 120.199V115.84C23.7227 115.844 20.2069 117.302 17.6139 119.895C15.0209 122.488 13.5623 126.004 13.5583 129.671Z" fill="white"/>
<path d="M23.5609 125.119L20.0505 128.327L25.277 134.045C25.498 134.287 25.7667 134.481 26.0661 134.614C26.3655 134.747 26.6891 134.817 27.0168 134.819H27.0322C27.3573 134.819 27.6789 134.752 27.9772 134.623C28.2754 134.494 28.5441 134.305 28.7665 134.068L39.8613 122.242L36.3928 118.988L27.055 128.941L23.5609 125.119Z" fill="white"/>
<path d="M79.8842 47.1406H51.0781V51.8964H79.8842V47.1406Z" fill="white"/>
<path d="M71.1312 56.6934H51.0781V61.4492H71.1312V56.6934Z" fill="white"/>
<path d="M71.1312 84.0391H51.0781V88.7949H71.1312V84.0391Z" fill="white"/>
<path d="M79.7449 93.5938H51.0781V98.3495H79.7449V93.5938Z" fill="white"/>
<path d="M154.556 168.988L148.964 118.712C148.745 116.723 147.799 114.886 146.308 113.552C144.817 112.217 142.886 111.481 140.886 111.483H129.775V103.814C129.77 99.2106 127.96 94.793 124.733 91.5098C121.507 88.2266 117.121 86.3398 112.519 86.2545C102.693 86.0861 94.6512 94.2983 94.6512 104.125V111.483H83.5406C81.5399 111.481 79.609 112.218 78.1181 113.552C76.6273 114.886 75.6815 116.724 75.4622 118.712L69.8487 169.183C69.6429 171.033 69.8296 172.905 70.3965 174.677C70.9635 176.449 71.8979 178.082 73.1388 179.469C74.3798 180.855 75.8993 181.965 77.5981 182.724C79.2969 183.484 81.1368 183.876 82.9976 183.876H141.232C143.118 183.876 144.982 183.478 146.703 182.709C148.425 181.939 149.964 180.815 151.222 179.41C152.479 178.005 153.426 176.351 154.001 174.555C154.575 172.759 154.764 170.862 154.556 168.988ZM99.4068 103.814C99.4107 100.457 100.731 97.2353 103.084 94.8412C105.437 92.4471 108.636 91.0714 111.992 91.0096C119.156 90.8877 125.02 96.9041 125.02 104.069V111.483H99.4068V103.814ZM147.678 176.239C146.867 177.145 145.873 177.87 144.762 178.366C143.652 178.863 142.449 179.12 141.233 179.12H82.9978C81.8058 179.12 80.6273 178.869 79.5392 178.382C78.4511 177.896 77.4778 177.185 76.6829 176.297C75.888 175.409 75.2895 174.363 74.9263 173.228C74.5631 172.093 74.4435 170.893 74.5752 169.709L80.1887 119.238C80.2798 118.413 80.6723 117.65 81.2909 117.097C81.9095 116.543 82.7106 116.238 83.5408 116.238H94.6512V125.671H99.407V116.238H125.02V125.671H129.775V116.238H140.886C141.716 116.238 142.517 116.543 143.136 117.097C143.754 117.65 144.147 118.413 144.238 119.238L149.83 169.514C149.964 170.723 149.841 171.947 149.47 173.106C149.1 174.264 148.489 175.332 147.678 176.239Z" fill="white"/>
</svg>
