<svg width="167" height="145" viewBox="0 0 167 145" fill="none" xmlns="http://www.w3.org/2000/svg">
<path d="M137.912 71.4286C136.659 75.4689 135.405 79.5092 134.151 83.5496C133.392 85.9952 132.633 88.4409 131.874 90.8864C131.697 91.456 131.521 92.0253 131.344 92.5948C131.249 92.9018 131.157 93.2099 131.061 93.5163C130.935 93.9138 130.801 94.3082 130.662 94.7007C130.549 95.0213 129.917 96.5736 130.451 95.3094C130.139 96.0489 129.777 96.7664 129.375 97.4606C129.178 97.8015 128.961 98.1309 128.738 98.455C128.586 98.674 128.124 99.2571 128.869 98.3022C128.709 98.5076 128.538 98.7041 128.365 98.8989C128.105 99.1925 127.823 99.4657 127.534 99.7308C127.388 99.8646 127.235 99.9906 127.083 100.116C127.998 99.3623 127.438 99.8375 127.217 99.9937C126.881 100.231 126.526 100.439 126.166 100.637C125.98 100.739 125.789 100.831 125.598 100.922C125.002 101.207 126.498 100.582 125.5 100.951C124.597 101.285 123.651 101.489 122.702 101.634C123.819 101.464 122.89 101.595 122.664 101.616C122.387 101.641 122.108 101.654 121.829 101.668C121.437 101.686 121.044 101.684 120.651 101.684C120.504 101.684 120.357 101.684 120.209 101.684C117.589 101.684 114.968 101.684 112.348 101.684C101.466 101.684 90.5846 101.684 79.7032 101.684C69.7323 101.684 59.7613 101.684 49.7906 101.684C48.6257 101.684 47.4609 101.684 46.296 101.684C46.0215 101.684 45.747 101.684 45.4722 101.684C45.4215 101.684 45.3708 101.684 45.3201 101.684C45.2291 101.684 45.1388 101.683 45.0474 101.682C44.7917 101.679 44.5365 101.659 44.2817 101.64C43.8561 101.595 43.9449 101.611 44.548 101.688C44.3831 101.662 44.2187 101.634 44.0551 101.601C43.5688 101.511 43.0924 101.374 42.6221 101.222C42.3894 101.147 42.1616 101.057 41.9341 100.967C42.9579 101.371 42.1772 101.057 41.9646 100.952C41.5313 100.737 41.1189 100.483 40.7156 100.217C40.5261 100.091 39.8517 99.57 40.7156 100.248C40.4635 100.05 40.2257 99.8343 39.9904 99.6166C39.6372 99.2896 39.3149 98.9308 39.0043 98.5633C39.5039 99.2632 38.4499 97.9075 39.0043 98.5633C38.8636 98.3666 38.7503 98.1746 38.6221 97.9693C38.3644 97.5572 38.1453 97.122 37.9403 96.6812C38.405 97.6805 38.0433 96.9208 37.9598 96.6933C37.846 96.3838 37.7553 96.0665 37.6679 95.7487C37.5833 95.4402 37.3363 93.8093 37.4848 95.0455C37.4328 94.6126 37.4127 94.1731 37.4127 93.7372C37.4127 93.6891 37.4127 93.6412 37.4127 93.5932C37.4127 93.2802 37.4127 92.9672 37.4127 92.654C37.4127 83.3706 37.4127 74.0875 37.4127 64.8042C37.4127 55.15 37.4127 45.4956 37.4127 35.8412C37.4127 35.3011 37.4127 34.7609 37.4127 34.2206C36.1359 35.5058 34.859 36.791 33.5822 38.0762C40.8497 38.0762 48.1173 38.0762 55.3848 38.0762C66.1657 38.0762 76.9463 38.0762 87.7272 38.0762C89.326 38.0762 90.9248 38.0762 92.5237 38.0762C91.2925 36.4493 90.0612 34.8224 88.83 33.1956C87.8576 39.2387 88.0903 45.3465 89.8019 51.2421C91.3005 56.404 93.9108 61.0747 97.2612 65.2332C103.042 72.4087 111.694 77.3627 120.74 78.8216C128.551 80.0811 136.315 78.9995 143.539 75.7823C145.45 74.9315 145.879 72.1654 144.914 70.5071C143.771 68.5443 141.582 68.2735 139.673 69.1239C138.709 69.5531 140.409 68.8274 139.433 69.2309C139.141 69.3514 138.847 69.4637 138.553 69.5761C137.962 69.8017 137.362 70.0032 136.759 70.1963C135.44 70.6191 134.092 70.9443 132.733 71.2068C132.416 71.268 132.097 71.3205 131.779 71.3728C131.637 71.3961 130.559 71.5364 131.511 71.4159C130.862 71.4982 130.209 71.5531 129.556 71.5988C128.23 71.6919 126.898 71.6926 125.57 71.6353C125.02 71.6117 124.47 71.5687 123.922 71.5193C123.65 71.4947 123.378 71.4639 123.106 71.433C122.159 71.3254 123.986 71.5634 123.045 71.4266C121.89 71.2586 120.746 71.0196 119.613 70.7364C118.581 70.4785 117.564 70.1612 116.56 69.8096C116.061 69.635 115.569 69.4435 115.079 69.2464C114.224 68.9027 115.867 69.5926 115.024 69.2236C114.703 69.0831 114.386 68.9342 114.07 68.7842C112.104 67.8521 110.237 66.7149 108.477 65.4346C108.266 65.2817 108.059 65.124 107.852 64.9665C108.689 65.6039 107.97 65.0522 107.812 64.9241C107.407 64.5971 107.014 64.2569 106.625 63.9124C105.781 63.1665 104.982 62.3711 104.213 61.548C103.502 60.7876 102.834 59.9884 102.193 59.1684C102.843 59.999 102.286 59.2802 102.165 59.1159C102.011 58.9059 101.861 58.6923 101.711 58.4788C101.361 57.9802 101.029 57.4685 100.705 56.9524C100.121 56.0219 99.5919 55.0578 99.0948 54.0779C98.788 53.4735 98.5082 52.8559 98.2369 52.2348C98.576 53.0112 98.162 52.0323 98.1229 51.933C97.9668 51.5345 97.823 51.1312 97.6815 50.7273C97.2527 49.5049 96.9085 48.254 96.6163 46.9919C96.4685 46.3536 96.3474 45.7093 96.2352 45.064C96.1787 44.739 96.1312 44.4127 96.0838 44.0863C96.2242 45.0518 96.0446 43.6341 96.0276 43.463C95.8835 41.9953 95.8507 40.5184 95.8868 39.045C95.9038 38.3468 95.9512 37.6497 96.0086 36.954C96.0373 36.609 96.0758 36.2652 96.1143 35.9213C96.1721 35.4637 96.1706 35.4645 96.1143 35.9213C96.1473 35.6951 96.1803 35.4707 96.2177 35.2453C96.3893 34.178 96.3946 33.2416 95.8315 32.2743C95.1491 31.1018 93.8747 30.3646 92.5239 30.3646C85.2564 30.3646 77.9888 30.3646 70.7213 30.3646C59.9405 30.3646 49.1598 30.3646 38.3791 30.3646C36.7802 30.3646 35.1814 30.3646 33.5826 30.3646C31.4944 30.3646 29.752 32.1186 29.752 34.2202C29.752 41.51 29.752 48.7996 29.752 56.0895C29.752 66.9655 29.752 77.8417 29.752 88.718C29.752 91.7257 29.5397 94.8592 30.281 97.7982C31.5551 102.85 35.4085 106.631 40.125 108.492C41.9465 109.21 43.9437 109.395 45.8874 109.395C53.6124 109.395 61.3372 109.395 69.0621 109.395C80.7327 109.395 92.4034 109.395 104.074 109.395C108.227 109.395 112.38 109.395 116.534 109.395C119.292 109.395 121.995 109.443 124.739 109.069C129.145 108.468 132.805 105.929 135.353 102.346C137.018 100.005 137.945 97.178 138.79 94.4556C140.24 89.7832 141.69 85.1108 143.14 80.4382C143.86 78.1181 144.58 75.7981 145.3 73.4779C145.922 71.4719 144.585 69.2779 142.625 68.735C140.56 68.1639 138.534 69.4243 137.912 71.4286Z" fill="white"/>
<path d="M66.2449 132.323C66.2413 132.578 66.2307 132.831 66.2126 133.086C66.1493 133.981 66.3708 132.178 66.2092 133.051C66.12 133.534 65.9708 134.002 65.8031 134.462C66.1778 133.435 65.91 134.195 65.7973 134.423C65.6909 134.638 65.5673 134.844 65.444 135.049C65.321 135.254 65.1818 135.449 65.0428 135.643C65.7106 134.71 65.0543 135.579 64.8743 135.77C64.7112 135.943 64.5348 136.103 64.3586 136.262C63.7291 136.831 65.0746 135.75 64.3875 136.248C64.0002 136.529 63.5807 136.761 63.1542 136.975C62.3874 137.359 63.9882 136.659 63.1805 136.957C62.9523 137.042 62.7175 137.107 62.4835 137.172C62.2465 137.237 62.0047 137.282 61.7632 137.328C62.9344 137.108 61.8202 137.302 61.5366 137.315C61.1981 137.329 59.5783 137.134 60.8006 137.328C60.3174 137.251 59.8461 137.114 59.3833 136.957C58.5677 136.682 60.1862 137.338 59.4096 136.975C59.1929 136.874 58.9845 136.755 58.777 136.636C58.5699 136.518 58.3729 136.383 58.1763 136.248C57.8483 136.008 57.918 136.064 58.3855 136.417C58.2638 136.315 58.1449 136.211 58.0287 136.103C57.7974 135.894 56.8015 134.693 57.5207 135.643C57.2318 135.261 56.9899 134.846 56.7665 134.423C56.6532 134.209 56.3513 133.429 56.7606 134.462C56.6709 134.235 56.5999 134.002 56.5291 133.769C56.4576 133.533 56.406 133.292 56.3544 133.051C56.2816 132.631 56.2887 132.727 56.3757 133.337C56.3568 133.17 56.3426 133.002 56.3331 132.834C56.2971 132.325 56.3256 131.815 56.3757 131.308C56.2541 132.536 56.5003 130.972 56.5999 130.643C56.6689 130.416 56.9994 129.628 56.5585 130.657C56.6534 130.436 56.7659 130.223 56.8783 130.01C56.9903 129.799 57.1192 129.596 57.2477 129.394C57.335 129.261 57.4259 129.131 57.5204 129.003C57.159 129.465 57.1081 129.539 57.3677 129.226C57.675 128.862 58.0247 128.537 58.3853 128.228C57.5665 128.93 58.1668 128.403 58.3726 128.262C58.5697 128.127 58.7771 128.009 58.9842 127.891C59.1925 127.772 59.4099 127.67 59.627 127.569C58.6325 128.033 59.3776 127.69 59.6128 127.61C59.844 127.532 60.0812 127.474 60.3178 127.415C60.4777 127.378 60.6386 127.346 60.8004 127.318C60.1906 127.391 60.098 127.405 60.523 127.36C61.0273 127.309 61.5359 127.324 62.0404 127.36C62.9291 127.424 61.1382 127.201 62.0054 127.363C62.246 127.408 62.4824 127.474 62.7182 127.539C62.9519 127.604 63.1797 127.688 63.407 127.772C62.3866 127.395 63.1418 127.665 63.3683 127.778C63.5819 127.885 63.7864 128.01 63.9905 128.134C64.2098 128.267 65.074 128.956 64.178 128.229C64.5474 128.529 64.8792 128.872 65.1957 129.226C65.7612 129.86 64.6866 128.506 65.1818 129.197C65.321 129.392 65.4443 129.597 65.5673 129.802C65.6909 130.008 65.7976 130.224 65.904 130.439C66.2858 131.211 65.5899 129.6 65.8865 130.413C65.9702 130.642 66.0348 130.878 66.0993 131.114C66.1694 131.37 66.3421 132.517 66.188 131.309C66.2307 131.645 66.24 131.984 66.2449 132.323C66.2746 134.424 67.9648 136.178 70.0755 136.178C72.1411 136.178 73.9358 134.425 73.906 132.323C73.8272 126.744 70.3549 122.151 65.2172 120.252C60.0148 118.33 54.2761 120.661 51.0496 124.921C47.948 129.016 47.908 135.112 50.7669 139.341C53.849 143.9 59.4564 146.009 64.7552 144.542C70.1608 143.046 73.8276 137.881 73.906 132.323C73.9358 130.221 72.1411 128.467 70.0755 128.467C67.9648 128.467 66.2745 130.221 66.2449 132.323Z" fill="white"/>
<path d="M114.606 132.323C114.602 132.579 114.592 132.832 114.574 133.086C114.51 133.981 114.732 132.178 114.57 133.051C114.481 133.534 114.332 134.003 114.164 134.462C114.539 133.435 114.271 134.195 114.158 134.423C114.052 134.638 113.928 134.844 113.805 135.049C113.682 135.254 113.543 135.449 113.404 135.643C114.072 134.71 113.415 135.579 113.235 135.77C113.072 135.943 112.896 136.103 112.72 136.262C112.09 136.831 113.436 135.75 112.748 136.248C112.361 136.529 111.942 136.761 111.515 136.975C110.748 137.359 112.349 136.659 111.541 136.957C111.313 137.042 111.079 137.107 110.844 137.172C110.607 137.237 110.366 137.283 110.124 137.328C111.296 137.108 110.181 137.303 109.898 137.315C109.56 137.329 107.94 137.135 109.162 137.328C108.679 137.252 108.207 137.114 107.744 136.957C106.929 136.682 108.547 137.338 107.771 136.975C107.554 136.874 107.346 136.755 107.138 136.636C106.931 136.518 106.734 136.383 106.537 136.248C106.209 136.008 106.279 136.064 106.746 136.417C106.625 136.316 106.506 136.211 106.39 136.103C106.159 135.894 105.162 134.693 105.882 135.643C105.593 135.261 105.351 134.846 105.127 134.423C105.014 134.209 104.712 133.429 105.122 134.462C105.032 134.235 104.961 134.002 104.89 133.769C104.819 133.533 104.767 133.292 104.715 133.051C104.643 132.631 104.65 132.727 104.737 133.337C104.718 133.17 104.704 133.002 104.694 132.834C104.658 132.325 104.687 131.815 104.737 131.308C104.615 132.536 104.861 130.972 104.961 130.643C105.03 130.416 105.36 129.628 104.919 130.657C105.014 130.436 105.127 130.223 105.239 130.01C105.351 129.799 105.48 129.596 105.609 129.395C105.696 129.261 105.787 129.131 105.881 129.003C105.52 129.465 105.469 129.539 105.729 129.226C106.036 128.862 106.386 128.537 106.746 128.229C105.927 128.93 106.528 128.403 106.734 128.262C106.931 128.128 107.138 128.009 107.345 127.891C107.554 127.772 107.771 127.67 107.988 127.569C106.993 128.033 107.739 127.69 107.974 127.611C108.205 127.532 108.442 127.474 108.679 127.415C108.839 127.378 109 127.346 109.162 127.318C108.552 127.391 108.459 127.405 108.884 127.36C109.389 127.309 109.897 127.324 110.402 127.36C111.29 127.424 109.499 127.201 110.367 127.363C110.607 127.409 110.844 127.474 111.079 127.539C111.313 127.604 111.541 127.688 111.768 127.772C110.748 127.395 111.503 127.665 111.729 127.778C111.943 127.885 112.147 128.01 112.351 128.134C112.571 128.267 113.435 128.956 112.539 128.229C112.908 128.529 113.24 128.872 113.556 129.226C114.122 129.86 113.047 128.506 113.543 129.198C113.682 129.392 113.805 129.597 113.928 129.802C114.052 130.008 114.158 130.224 114.265 130.439C114.646 131.211 113.95 129.6 114.247 130.413C114.331 130.642 114.395 130.878 114.46 131.114C114.53 131.37 114.703 132.517 114.548 131.309C114.592 131.645 114.601 131.984 114.606 132.323C114.636 134.424 116.326 136.178 118.437 136.178C120.502 136.178 122.297 134.425 122.267 132.323C122.188 126.744 118.716 122.151 113.578 120.252C108.376 118.33 102.637 120.661 99.4106 124.921C96.3087 129.016 96.2688 135.112 99.1278 139.341C102.21 143.9 107.818 146.009 113.116 144.542C118.522 143.046 122.189 137.881 122.267 132.323C122.297 130.221 120.502 128.467 118.437 128.467C116.326 128.467 114.636 130.221 114.606 132.323Z" fill="white"/>
<path d="M37.4124 82.8071C37.4124 75.2043 37.4124 67.6014 37.4124 59.9986C37.4124 49.8351 37.4124 39.6716 37.4124 29.5081C37.4124 28.7898 37.4124 28.0718 37.4124 27.3535C37.4124 24.7945 36.4772 22.5168 34.9333 20.5306C33.1928 18.2913 30.5736 17.1295 27.8362 16.7729C26.3698 16.5818 24.8323 16.6993 23.3592 16.6993C20.5645 16.6993 17.77 16.6993 14.9755 16.6993C11.5047 16.6993 8.03383 16.6993 4.56298 16.6993C2.47478 16.6993 0.732422 18.453 0.732422 20.5549C0.732422 22.6567 2.47478 24.4105 4.56298 24.4105C8.7589 24.4105 12.9548 24.4105 17.1508 24.4105C19.7136 24.4105 22.2764 24.4105 24.8392 24.4105C25.4547 24.4105 26.0699 24.4105 26.6854 24.4105C26.9882 24.4105 27.2891 24.424 27.591 24.4521C26.4774 24.3488 27.2722 24.4297 27.5358 24.4942C27.7702 24.5515 27.9974 24.6341 28.2238 24.7163C27.2127 24.349 27.9372 24.6064 28.172 24.7319C28.4 24.854 29.283 25.5091 28.3739 24.7934C28.7453 25.0857 29.0685 25.4346 29.3708 25.7966C28.6817 24.9708 29.1776 25.5756 29.3133 25.7935C29.4392 25.9962 29.5435 26.2114 29.6475 26.426C29.1758 25.4515 29.5211 26.1506 29.6024 26.4058C29.6769 26.639 29.7257 26.8795 29.7743 27.1189C29.5395 25.9639 29.7511 27.0352 29.7511 27.3479C29.7511 27.5476 29.7511 27.7476 29.7511 27.9475C29.7511 29.1949 29.7511 30.4422 29.7511 31.6896C29.7511 36.5375 29.7511 41.3855 29.7511 46.2334C29.7511 57.0437 29.7511 67.8539 29.7511 78.6642C29.7511 80.045 29.7511 81.4259 29.7511 82.8067C29.7511 84.9084 31.4936 86.6623 33.5817 86.6623C35.6697 86.6623 37.4124 84.9088 37.4124 82.8071Z" fill="white"/>
<path d="M52.6844 68.3008C58.1285 68.3008 63.5725 68.3008 69.0166 68.3008C71.1046 68.3008 72.8472 66.5469 72.8472 64.4452C72.8472 62.3436 71.1046 60.5897 69.0166 60.5897C63.5725 60.5897 58.1285 60.5897 52.6844 60.5897C50.5962 60.5897 48.8538 62.3436 48.8538 64.4452C48.8538 66.5469 50.5962 68.3008 52.6844 68.3008Z" fill="white"/>
<path d="M52.6884 86.8962C60.9108 86.8962 69.133 86.8962 77.3554 86.8962C84.8489 86.8962 92.3424 86.8962 99.8358 86.8962C101.924 86.8962 103.666 85.1423 103.666 83.0406C103.666 80.939 101.924 79.185 99.8358 79.185C91.6135 79.185 83.3912 79.185 75.1689 79.185C67.6754 79.185 60.1819 79.185 52.6884 79.185C50.6002 79.185 48.8578 80.939 48.8578 83.0406C48.8578 85.1423 50.6002 86.8962 52.6884 86.8962Z" fill="white"/>
<path d="M127.999 119.352C122.23 119.352 116.461 119.352 110.692 119.352C99.0438 119.352 87.396 119.352 75.7482 119.352C66.7108 119.352 57.6734 119.352 48.636 119.352C47.7794 119.352 46.9226 119.352 46.0661 119.352C45.9393 119.352 45.8125 119.352 45.6859 119.352C45.3457 119.352 45.0072 119.334 44.6681 119.31C43.7741 119.244 45.5732 119.461 44.694 119.322C44.4499 119.284 44.2082 119.23 43.9671 119.177C43.4901 119.071 43.0239 118.921 42.5638 118.757C41.7486 118.468 43.3721 119.13 42.5854 118.776C42.293 118.645 42.0102 118.493 41.7293 118.339C41.31 118.108 40.9119 117.84 40.5231 117.562C41.4845 118.251 40.2491 117.304 40.0223 117.089C39.6761 116.76 39.3595 116.402 39.0541 116.035C38.5076 115.378 39.572 116.749 39.078 116.051C38.8932 115.79 38.7267 115.516 38.5631 115.241C38.3161 114.826 38.1067 114.39 37.9108 113.949C38.4015 115.055 37.817 113.559 37.7317 113.259C37.5958 112.78 37.5044 112.291 37.428 111.801C37.6204 113.037 37.4371 111.377 37.4371 111.051C37.4371 110.293 37.4371 109.535 37.4371 108.777C37.4371 98.2038 37.4371 87.6309 37.4371 77.0579C37.4371 72.821 37.4371 68.5843 37.4371 64.3474C37.4371 62.2455 35.6947 60.4918 33.6065 60.4918C31.5183 60.4918 29.776 62.2455 29.776 64.3474C29.776 72.6813 29.776 81.0152 29.776 89.349C29.776 94.7391 29.776 100.129 29.776 105.519C29.776 109.052 29.4549 112.865 30.6404 116.242C32.3443 121.097 36.1469 124.741 40.9867 126.352C42.6862 126.917 44.5036 127.063 46.2855 127.063C48.8843 127.063 51.4828 127.063 54.0814 127.063C64.7278 127.063 75.374 127.063 86.0204 127.063C96.8576 127.063 107.695 127.063 118.532 127.063C121.688 127.063 124.843 127.063 127.998 127.063C130.086 127.063 131.829 125.309 131.829 123.208C131.829 121.106 130.087 119.352 127.999 119.352Z" fill="white"/>
<path d="M158.606 40.1082C158.603 41.1336 158.56 42.1563 158.476 43.1784C158.435 43.6826 158.378 44.1851 158.315 44.6868C158.459 43.532 158.346 44.4212 158.31 44.6567C158.26 44.9863 158.201 45.3146 158.141 45.6425C157.772 47.6643 157.207 49.6471 156.494 51.5722C156.392 51.8476 155.763 53.3612 156.245 52.2317C156.054 52.6778 155.851 53.1179 155.642 53.5556C155.193 54.5002 154.692 55.4193 154.161 56.3199C153.673 57.1477 153.143 57.95 152.59 58.7351C152.424 58.9714 151.444 60.2531 152.187 59.2988C151.844 59.7394 151.486 60.1683 151.123 60.5922C149.827 62.1056 148.391 63.4942 146.862 64.7675C146.679 64.9204 146.492 65.0697 146.305 65.2187C147.169 64.5288 146.504 65.0634 146.324 65.2C145.942 65.4884 145.551 65.7653 145.158 66.038C144.304 66.6304 143.419 67.1759 142.517 67.69C141.679 68.167 140.818 68.6005 139.945 69.0066C139.727 69.1085 139.505 69.2058 139.284 69.3031C140.309 68.8522 139.519 69.2025 139.306 69.2889C138.782 69.5028 138.25 69.6982 137.715 69.886C135.78 70.5662 133.781 71.053 131.758 71.3822C131.525 71.4202 130.631 71.5261 131.779 71.3728C131.53 71.406 131.29 71.4483 131.041 71.476C130.54 71.532 130.037 71.5718 129.533 71.6062C128.399 71.6836 127.261 71.6939 126.125 71.6629C125.025 71.6328 123.928 71.5386 122.836 71.406C123.928 71.5388 122.99 71.424 122.778 71.3915C122.511 71.3506 122.244 71.3034 121.978 71.2562C121.36 71.1466 120.746 71.0133 120.135 70.8705C119.097 70.6279 118.073 70.3259 117.062 69.989C116.56 69.8218 116.064 69.6374 115.57 69.4476C115.324 69.3528 115.08 69.2526 114.836 69.1525C115.872 69.5781 114.749 69.1061 114.547 69.0139C112.565 68.111 110.681 67.0008 108.901 65.746C108.688 65.5962 108.478 65.4414 108.269 65.2869C108.106 65.1662 107.39 64.6061 108.219 65.2564C107.81 64.9353 107.412 64.6009 107.017 64.2622C106.163 63.5285 105.352 62.7451 104.571 61.9336C103.85 61.184 103.17 60.3949 102.517 59.5846C102.39 59.426 101.84 58.7015 102.478 59.5419C102.32 59.3342 102.167 59.1231 102.014 58.9119C101.657 58.4186 101.318 57.9124 100.986 57.4013C100.416 56.5222 99.8951 55.6119 99.405 54.6857C99.0885 54.0875 98.7957 53.4772 98.513 52.8621C98.4712 52.7711 98.0303 51.735 98.3616 52.5352C98.1981 52.1404 98.0476 51.7402 97.8988 51.3397C97.4488 50.128 97.0822 48.8865 96.7675 47.6329C96.6083 46.9991 96.4755 46.3591 96.3518 45.7176C96.2894 45.3948 96.2362 45.0702 96.1827 44.7458C96.1481 44.5284 96.1144 44.304 96.0838 44.0863C96.1471 44.5646 96.1519 44.5842 96.0966 44.1316C95.8115 41.6953 95.8079 39.2273 96.0248 36.7856C96.0516 36.4827 96.2688 34.7967 96.0939 36.0564C96.1628 35.5603 96.2475 35.0668 96.3372 34.5744C96.5298 33.5178 96.7816 32.4727 97.0694 31.4383C97.3323 30.4937 97.644 29.5634 97.9845 28.6445C98.0867 28.3691 98.7154 26.8553 98.2339 27.9848C98.4557 27.4645 98.6952 26.9521 98.9418 26.4431C99.8165 24.6367 100.862 22.9169 102.028 21.2866C102.167 21.0916 102.31 20.8995 102.454 20.7075C102.967 20.0197 101.909 21.4033 102.44 20.7301C102.736 20.3544 103.044 19.9878 103.355 19.6246C104.029 18.8379 104.745 18.0881 105.484 17.3636C106.166 16.6946 106.882 16.0608 107.616 15.4496C107.8 15.2967 107.987 15.1474 108.173 14.9983C107.31 15.6883 107.974 15.1534 108.155 15.017C108.6 14.6803 109.057 14.359 109.518 14.044C111.172 12.9126 112.932 11.9417 114.753 11.1102C114.96 11.0155 115.756 10.6753 114.724 11.1124C114.947 11.0179 115.172 10.9281 115.397 10.8383C115.849 10.6582 116.305 10.4922 116.763 10.331C117.764 9.97925 118.783 9.68439 119.811 9.4257C120.771 9.18409 121.743 8.99388 122.72 8.83488C122.953 8.79687 123.838 8.67662 122.69 8.82992C122.939 8.79669 123.188 8.76878 123.437 8.74106C124.023 8.6757 124.61 8.63127 125.198 8.59528C126.303 8.52772 127.411 8.52496 128.516 8.55966C129.149 8.57949 129.781 8.62484 130.411 8.67864C130.724 8.70544 131.036 8.74033 131.348 8.77558C131.792 8.83102 131.762 8.82552 131.259 8.75924C131.465 8.7888 131.67 8.82037 131.875 8.85361C134.396 9.25183 136.864 9.96089 139.237 10.9C140.188 11.2766 138.499 10.5715 139.436 10.9804C139.712 11.101 139.985 11.2288 140.258 11.3564C140.803 11.6113 141.338 11.887 141.869 12.1696C143.035 12.7903 144.157 13.4919 145.246 14.2397C145.522 14.4288 145.792 14.6254 146.062 14.8219C146.142 14.8804 147.018 15.5583 146.347 15.0295C146.81 15.3941 147.258 15.7769 147.702 16.1649C148.601 16.9503 149.451 17.7912 150.266 18.6633C150.642 19.0659 151.005 19.4818 151.362 19.9017C151.541 20.1117 151.715 20.326 151.889 20.5401C152.005 20.6838 152.584 21.4375 151.969 20.6302C152.695 21.584 153.361 22.5826 153.988 23.6052C154.569 24.5539 155.094 25.5363 155.583 26.5355C155.829 27.0376 156.057 27.5484 156.279 28.0616C155.87 27.1164 156.248 28.0037 156.317 28.1791C156.455 28.5279 156.583 28.8808 156.709 29.2339C157.512 31.4732 158.06 33.8007 158.399 36.1552C158.24 35.0503 158.412 36.3621 158.434 36.5745C158.473 36.9632 158.502 37.3528 158.529 37.7424C158.584 38.5295 158.603 39.319 158.606 40.1082C158.615 42.2099 160.342 43.9638 162.437 43.9638C164.519 43.9638 166.276 42.2101 166.268 40.1082C166.226 29.8462 162.212 19.9726 155.114 12.6108C147.569 4.78597 136.764 0.498376 125.96 0.847949C116.977 1.13859 108.472 4.62109 101.651 10.459C95.19 15.9894 90.6424 23.9188 88.9964 32.2792C86.9381 42.7324 89.1177 53.8611 95.2477 62.5912C100.722 70.3869 108.854 76.0711 118.098 78.3061C127.189 80.5039 136.791 79.258 145.113 75.0323C152.625 71.2173 158.886 64.6626 162.464 57.0097C164.94 51.7121 166.247 45.9685 166.268 40.1082C166.275 38.0064 164.52 36.2527 162.437 36.2527C160.343 36.2527 158.614 38.0066 158.606 40.1082Z" fill="white"/>
<path d="M141.12 25.9249C134.684 32.4026 128.248 38.8806 121.812 45.3585C120.668 46.5104 119.523 47.6623 118.379 48.8142C120.184 48.8142 121.99 48.8142 123.796 48.8142C120.31 45.3054 116.824 41.7965 113.338 38.2877C111.862 36.8022 109.396 36.8022 107.921 38.2877C106.445 39.773 106.445 42.2549 107.921 43.7403C111.407 47.249 114.893 50.758 118.379 54.2667C119.855 55.7522 122.32 55.7522 123.796 54.2667C130.232 47.789 136.668 41.3111 143.104 34.8331C144.248 33.6812 145.392 32.5293 146.537 31.3774C148.013 29.8921 148.013 27.4102 146.537 25.9249C145.061 24.4394 142.595 24.4394 141.12 25.9249Z" fill="white"/>
</svg>
