<svg width="125" height="103" viewBox="0 0 125 103" fill="none" xmlns="http://www.w3.org/2000/svg">
<path d="M84.2729 3.36523H3.77148V73.1331H84.2729V3.36523Z" stroke="white" stroke-width="6" stroke-linecap="round" stroke-linejoin="round"/>
<path d="M84.2759 30.1895H105.743L121.843 46.2897V73.1236H84.2759V30.1895Z" stroke="white" stroke-width="6" stroke-linecap="round" stroke-linejoin="round"/>
<path d="M27.9203 99.9725C35.3303 99.9725 41.3372 93.9655 41.3372 86.5556C41.3372 79.1456 35.3303 73.1387 27.9203 73.1387C20.5104 73.1387 14.5034 79.1456 14.5034 86.5556C14.5034 93.9655 20.5104 99.9725 27.9203 99.9725Z" stroke="white" stroke-width="6" stroke-linecap="round" stroke-linejoin="round"/>
<path d="M97.6928 99.9725C105.103 99.9725 111.11 93.9655 111.11 86.5556C111.11 79.1456 105.103 73.1387 97.6928 73.1387C90.2828 73.1387 84.2759 79.1456 84.2759 86.5556C84.2759 93.9655 90.2828 99.9725 97.6928 99.9725Z" stroke="white" stroke-width="6" stroke-linecap="round" stroke-linejoin="round"/>
</svg>
