<svg width="113" height="113" viewBox="0 0 113 113" fill="none" xmlns="http://www.w3.org/2000/svg">
<path d="M99.2285 56.6016V110H13.791V56.6016" stroke="white" stroke-width="6" stroke-linecap="round" stroke-linejoin="round"/>
<path d="M109.908 29.9023H3.11133V56.6016H109.908V29.9023Z" stroke="white" stroke-width="6" stroke-linecap="round" stroke-linejoin="round"/>
<path d="M56.5098 110V29.9023" stroke="white" stroke-width="6" stroke-linecap="round" stroke-linejoin="round"/>
<path d="M56.5098 29.9023H32.4805C28.9399 29.9023 25.5444 28.4959 23.0409 25.9923C20.5373 23.4888 19.1309 20.0933 19.1309 16.5527C19.1309 13.0122 20.5373 9.61667 23.0409 7.11314C25.5444 4.6096 28.9399 3.20313 32.4805 3.20313C51.1699 3.20312 56.5098 29.9023 56.5098 29.9023Z" stroke="white" stroke-width="6" stroke-linecap="round" stroke-linejoin="round"/>
<path d="M56.5098 29.9023H80.5391C84.0796 29.9023 87.4751 28.4959 89.9787 25.9923C92.4822 23.4888 93.8887 20.0933 93.8887 16.5527C93.8887 13.0122 92.4822 9.61667 89.9787 7.11314C87.4751 4.6096 84.0796 3.20312 80.5391 3.20312C61.8496 3.20312 56.5098 29.9023 56.5098 29.9023Z" stroke="white" stroke-width="6" stroke-linecap="round" stroke-linejoin="round"/>
</svg>
