<svg width="17" height="19" viewBox="0 0 17 19" fill="none" xmlns="http://www.w3.org/2000/svg">
    <g id="Group">
        <path id="Vector" fillRule="evenodd" clipRule="evenodd"
            d="M10.4551 2.69731C12.3916 3.17593 14.0871 4.32238 15.2475 5.92147C16.4079 7.52057 16.9466 9.46471 16.7771 11.42C16.5887 13.6127 15.5338 15.6273 13.8233 17.0483C12.1166 18.4694 9.92389 19.1557 7.69725 18.9702C5.47061 18.7847 3.42482 17.7459 1.98184 16.0614C0.538853 14.3807 -0.158148 12.2214 0.0302304 10.0287C0.177166 8.32197 0.851562 6.71174 1.97053 5.40204C3.0895 4.09235 4.59653 3.14996 6.28064 2.71586C6.58958 2.63795 6.91359 2.82346 6.99648 3.12769C7.0756 3.43193 6.88722 3.75101 6.57828 3.82892C5.13153 4.19994 3.83172 5.01247 2.86722 6.14037C1.90272 7.26827 1.32628 8.65218 1.19818 10.1214C1.03617 12.0099 1.63522 13.865 2.87852 15.3157C4.11805 16.7627 5.87751 17.6568 7.79521 17.8164C9.7129 17.9759 11.5967 17.386 13.0698 16.1616C14.5392 14.941 15.4472 13.2083 15.6092 11.3198C15.7523 9.63538 15.2889 7.96208 14.2943 6.5856C13.2959 5.20911 11.8378 4.2222 10.1725 3.81408C10.0218 3.77698 9.89375 3.68051 9.81086 3.55066C9.73174 3.4208 9.70537 3.26126 9.74304 3.11285C9.78072 2.96445 9.87868 2.8383 10.0105 2.75668C10.1424 2.67876 10.3044 2.65279 10.4551 2.68989V2.69731ZM8.98953 0.57879V6.81934C8.98953 7.13842 8.7258 7.39813 8.40178 7.39813C8.07777 7.39813 7.81404 7.13842 7.81404 6.81934V0.57879C7.81404 0.259714 8.07777 0 8.40178 0C8.7258 0 8.98953 0.259714 8.98953 0.57879Z"
            fill="#D0D0D0" />
    </g>
</svg>