<svg width="39" height="46" viewBox="0 0 39 46" fill="none" xmlns="http://www.w3.org/2000/svg">
<g id="Layer_1" clipPath="url(#clip0_222_783)">
<path id="Vector" d="M18.9223 45.7371C17.411 45.1008 15.8647 44.5339 14.3912 43.8147C7.42471 40.4163 2.95012 34.9913 1.10479 27.4834C0.454939 24.9123 0.0935542 22.2778 0.0272231 19.6279C-0.0401247 15.8472 0.00297296 12.0665 0.0137486 8.28577C0.0137486 7.29381 0.676452 6.68151 1.74863 6.63338C2.90162 6.57189 4.05732 6.5505 5.20493 6.43018C9.89234 5.93821 14.0248 4.18689 17.5242 1.02116C17.7128 0.852715 17.896 0.673575 18.0845 0.505128C18.8523 -0.179354 19.6739 -0.157964 20.4633 0.505128C21.4708 1.34736 22.4621 2.22168 23.5397 2.96766C26.2334 4.80274 29.3378 5.95737 32.5832 6.33125C33.9167 6.50237 35.2771 6.55852 36.624 6.62536C37.971 6.6922 38.5367 7.24567 38.5475 8.55582C38.5717 11.5478 38.6418 14.5424 38.6121 17.5316C38.6257 21.1051 38.1858 24.666 37.3029 28.1304C35.3875 35.2346 31.053 40.3843 24.4664 43.673C22.9066 44.4511 21.2606 45.0526 19.6551 45.7371H18.9223ZM3.24645 9.86329C3.24645 10.0264 3.22759 10.1734 3.22759 10.3205C3.20335 12.2403 3.16563 14.16 3.15755 16.0798C3.14408 19.5984 3.34882 23.0957 4.15969 26.5395C5.14566 30.7347 7.09606 34.3763 10.3341 37.2961C12.8907 39.6035 15.8782 41.1784 19.0974 42.3548C19.2505 42.4001 19.4148 42.3896 19.5608 42.3254C21.2391 41.5473 22.974 40.8575 24.5769 39.9431C28.0425 38.015 30.842 35.0947 32.6101 31.5635C34.38 28.0475 35.0966 24.2695 35.269 20.4032C35.4199 17.029 35.3256 13.6467 35.3363 10.2697C35.3363 10.1253 35.3175 9.98094 35.3094 9.84992C34.1403 9.71891 33.0061 9.61463 31.8801 9.46222C27.4084 8.88564 23.1992 7.04097 19.7574 4.14946C19.3803 3.83396 19.1756 3.84466 18.8038 4.14946C15.4922 6.93582 11.4609 8.74653 7.16609 9.37666C5.8811 9.57719 4.58532 9.70286 3.24645 9.86329Z" fill="#19191C"/>
<path id="Vector_2" d="M3.24673 9.86334C4.59368 9.70291 5.88138 9.57725 7.16638 9.38206C11.4611 8.75193 15.4925 6.94122 18.8041 4.15486C19.1758 3.8447 19.3806 3.83401 19.7577 4.15486C23.1995 7.04636 27.4087 8.89103 31.8803 9.46762C33.0064 9.62002 34.1405 9.735 35.3097 9.85532C35.3097 9.98633 35.3393 10.1227 35.3366 10.2751C35.3366 13.6521 35.4201 17.0344 35.2693 20.4086C35.0969 24.2749 34.3803 28.0529 32.6104 31.5689C30.8423 35.1001 28.0428 38.0204 24.5771 39.9485C22.9743 40.8629 21.2394 41.5527 19.5611 42.3308C19.4151 42.395 19.2508 42.4055 19.0977 42.3602C15.8785 41.1838 12.9017 39.6089 10.3344 37.3015C7.10173 34.3817 5.14594 30.7401 4.15997 26.5449C3.35179 23.1011 3.14436 19.5931 3.15783 16.0852C3.15783 14.1654 3.20363 12.2457 3.22788 10.3259C3.22788 10.1735 3.24134 10.0264 3.24673 9.86334ZM17.1204 25.0797C16.9237 24.8925 16.8025 24.7856 16.6894 24.6706C15.7321 23.7241 14.7776 22.7776 13.8257 21.8311C13.6398 21.6143 13.3991 21.4504 13.1283 21.3565C12.8575 21.2625 12.5664 21.2417 12.2848 21.2963C11.9932 21.3437 11.7217 21.474 11.5032 21.6714C11.2846 21.8688 11.1285 22.1249 11.0537 22.4086C10.9634 22.6949 10.9576 23.0008 11.0368 23.2903C11.1161 23.5798 11.2771 23.8407 11.5009 24.0423C12.8874 25.4219 14.2756 26.7998 15.6657 28.1759C16.6463 29.1492 17.4652 29.1465 18.4512 28.1759L26.8777 19.8097C27.008 19.6872 27.1295 19.5559 27.2414 19.4167C27.4378 19.1789 27.5572 18.8878 27.5842 18.5815C27.6111 18.2753 27.5442 17.9681 27.3923 17.7001C27.2572 17.4226 27.0396 17.1928 26.7689 17.0418C26.4982 16.8907 26.1874 16.8256 25.8783 16.8552C25.6466 16.8737 25.4209 16.9375 25.2142 17.0431C25.0075 17.1486 24.824 17.2938 24.6741 17.4702C22.2604 19.8712 19.8448 22.2705 17.4275 24.6679C17.3146 24.7972 17.212 24.9348 17.1204 25.0797Z" fill="white" fill-opacity="0.4"/>
<path id="Vector_3" d="M17.1199 25.0796C17.2114 24.9338 17.3141 24.7952 17.4271 24.6652C19.8408 22.2641 22.2563 19.8649 24.6737 17.4674C24.8235 17.291 25.0071 17.1459 25.2138 17.0403C25.4204 16.9347 25.6462 16.8709 25.8779 16.8524C26.187 16.8228 26.4978 16.8879 26.7685 17.039C27.0392 17.1901 27.2567 17.4198 27.3918 17.6973C27.5438 17.9653 27.6106 18.2725 27.5837 18.5788C27.5568 18.885 27.4373 19.1761 27.241 19.4139C27.129 19.5531 27.0075 19.6844 26.8773 19.8069L18.4454 28.1731C17.4594 29.1517 16.6404 29.1544 15.6598 28.1731C14.2698 26.797 12.8815 25.4192 11.4951 24.0395C11.2713 23.8379 11.1102 23.577 11.031 23.2875C10.9518 22.998 10.9576 22.6921 11.0479 22.4058C11.1227 22.1221 11.2788 21.866 11.4973 21.6686C11.7158 21.4712 11.9874 21.3409 12.279 21.2936C12.5605 21.2389 12.8517 21.2597 13.1225 21.3537C13.3933 21.4477 13.634 21.6115 13.8199 21.8283C14.7699 22.7766 15.7245 23.7231 16.6835 24.6678C16.8021 24.7855 16.9233 24.8924 17.1199 25.0796Z" fill="#19191C"/>
</g>
<defs>
<clipPath id="clip0_222_783">
<rect width="38.6226" height="45.7373" fill="white"/>
</clipPath>
</defs>
</svg>
