<svg width="15" height="15" viewBox="0 0 15 15" fill="none" xmlns="http://www.w3.org/2000/svg">
<g id="Group 34322">
<path id="Vector" d="M0.0026713 3.65604C0.112088 3.49801 0.260194 3.44731 0.455008 3.45455C0.83196 3.46838 1.21091 3.47628 1.5892 3.45455C1.8901 3.43611 1.79336 3.633 1.8027 3.77522C1.81204 3.91745 1.84406 4.08339 1.58387 4.05705C1.32367 4.03071 1.07281 4.06363 0.817954 4.04783C0.635816 4.03664 0.601123 4.10512 0.601123 4.26973C0.60646 6.37683 0.60112 8.47933 0.606457 10.5838C0.611704 10.8158 0.70731 11.037 0.873416 11.2013C1.03952 11.3656 1.26336 11.4604 1.49847 11.4661C1.99151 11.4708 2.40316 11.0506 2.40382 10.5291C2.40382 7.37244 2.40382 4.21552 2.40382 1.05838C2.40382 0.541484 2.44518 0.5 2.96625 0.5H13.2927C13.7197 0.5 13.7985 0.575066 13.7991 0.98595V7.13473C13.7991 7.19004 13.8031 7.24536 13.7991 7.29935C13.7805 7.48899 13.6804 7.61015 13.4809 7.60027C13.2981 7.59105 13.214 7.46858 13.2013 7.29474C13.1973 7.21836 13.2013 7.14132 13.2013 7.06428C13.2013 5.16789 13.1973 3.2715 13.2067 1.37576C13.2067 1.15057 13.1606 1.08538 12.9211 1.08604C9.71113 1.09438 6.50137 1.09438 3.29183 1.08604C3.01628 1.08604 2.99827 1.18086 2.99827 1.4021C3.00494 4.22957 3.00628 7.05747 3.00228 9.88582C3.00228 10.4159 3.077 10.9598 2.66869 11.4708H3.23178C4.6106 11.4708 5.98787 11.4708 7.36358 11.4708C7.57708 11.4708 7.79324 11.4833 7.79191 11.7539C7.79058 12.0245 7.56974 12.0331 7.35892 12.0324C5.42678 12.0324 3.49421 12.0324 1.56119 12.0324C0.721215 12.0324 0.252191 11.5715 0 10.8307L0.0026713 3.65604Z" fill="white"/>
<path id="Vector_2" d="M15 11.6822C14.8986 11.777 14.9026 11.9113 14.8665 12.0305C14.4429 13.491 13.0025 14.4774 11.4373 14.3793C9.97483 14.2871 8.71388 13.1025 8.44901 11.6578C8.15679 10.0663 9.23094 8.27988 11.0637 7.9388C12.8844 7.60034 14.5523 8.72896 14.9333 10.5016C14.9439 10.5523 14.9259 10.6142 15 10.63V11.6822ZM11.6968 13.7952C12.7503 13.7557 13.5649 13.3106 14.0733 12.3848C14.5723 11.4728 14.5076 10.5635 13.9725 9.68045C13.8885 9.54217 13.8264 9.43615 13.6436 9.61987C12.4899 10.7748 11.3279 11.9219 10.1576 13.061C10.0202 13.196 10.0542 13.2553 10.1937 13.3448C10.6374 13.6408 11.1613 13.7978 11.6968 13.7952ZM8.99343 11.1225C8.99343 11.6302 9.14487 12.0852 9.39373 12.5204C9.52183 12.743 9.59388 12.7917 9.80737 12.5803C10.9162 11.4631 12.0368 10.3574 13.1692 9.26298C13.3934 9.04634 13.3134 8.97259 13.1025 8.85275C12.2079 8.34507 11.2972 8.30754 10.3958 8.79876C9.48113 9.29854 9.03946 10.1005 8.99343 11.1225Z" fill="white"/>
<path id="Vector_3" d="M8.10175 2.86676C9.11185 2.86676 10.1233 2.8773 11.1334 2.85952C11.3949 2.85491 11.4076 2.95895 11.4076 3.16242C11.4076 3.36588 11.3956 3.46729 11.134 3.46597C9.11252 3.4528 7.09121 3.4528 5.07013 3.46597C4.8086 3.46597 4.79525 3.36654 4.79592 3.16308C4.79659 2.95961 4.80726 2.85491 5.06946 2.85952C6.08023 2.8773 7.08832 2.86676 8.10175 2.86676Z" fill="white"/>
<path id="Vector_4" d="M8.13511 4.05036C9.13587 4.05036 10.1366 4.06155 11.134 4.04311C11.3969 4.0385 11.4069 4.14452 11.4076 4.34733C11.4083 4.55013 11.3936 4.65088 11.1334 4.64956C9.11185 4.63727 7.09055 4.63727 5.06946 4.64956C4.80659 4.64956 4.79659 4.54816 4.79592 4.34601C4.79525 4.14386 4.80926 4.03916 5.07013 4.04311C6.09157 4.06089 7.11367 4.05036 8.13511 4.05036Z" fill="white"/>
<path id="Vector_5" d="M6.30137 7.01141C5.86837 7.01141 5.43404 6.99692 5.00305 7.01668C4.72484 7.02919 4.8029 6.84877 4.8029 6.7151C4.8029 6.58143 4.72351 6.40891 5.00305 6.41418C5.86904 6.42867 6.73503 6.42867 7.60102 6.41418C7.87856 6.40891 7.80117 6.58209 7.80117 6.7151C7.80117 6.84811 7.8819 7.02919 7.60102 7.01668C7.16802 6.99692 6.73436 7.01141 6.30137 7.01141Z" fill="white"/>
<path id="Vector_6" d="M9.87305 7.01142C9.45073 7.01142 9.02841 6.99561 8.60542 7.01668C8.33188 7.03051 8.39793 6.85668 8.40527 6.72037C8.41261 6.58407 8.3152 6.40958 8.59742 6.41419C9.46341 6.42867 10.3294 6.42867 11.1954 6.41419C11.4683 6.40892 11.4022 6.57419 11.3955 6.71116C11.3889 6.84812 11.4856 7.02788 11.2027 7.01668C10.7617 6.99825 10.3167 7.01142 9.87305 7.01142Z" fill="white"/>
<path id="Vector_7" d="M6.26775 8.19498C5.8461 8.19498 5.42311 8.18049 5.00012 8.20025C4.72258 8.21276 4.79997 8.03234 4.79997 7.89867C4.79997 7.765 4.72058 7.59314 5.00012 7.59775C5.86522 7.61267 6.73099 7.61267 7.59743 7.59775C7.87497 7.59314 7.79758 7.76631 7.79758 7.89932C7.79758 8.03234 7.87764 8.2121 7.59743 8.20025C7.15442 8.18049 6.71209 8.19498 6.26775 8.19498Z" fill="white"/>
<path id="Vector_8" d="M6.26775 9.37857C5.8461 9.37857 5.42378 9.36408 5.00012 9.38384C4.72191 9.39701 4.79997 9.21593 4.79997 9.08292C4.79997 8.94991 4.72058 8.77673 5.00012 8.78134C5.86611 8.7967 6.7321 8.7967 7.59809 8.78134C7.87564 8.77673 7.79825 8.94991 7.79825 9.08292C7.79825 9.21593 7.87897 9.39635 7.59809 9.38384C7.15443 9.36474 6.71209 9.37857 6.26775 9.37857Z" fill="white"/>
<path id="Vector_9" d="M6.30137 10.5628C5.86837 10.5628 5.43404 10.5483 5.00305 10.5674C4.72484 10.5799 4.8029 10.3995 4.8029 10.2665C4.8029 10.1335 4.72351 9.96032 5.00305 9.96493C5.86904 9.9803 6.73503 9.9803 7.60102 9.96493C7.87856 9.96032 7.80117 10.1335 7.80117 10.2665C7.80117 10.3995 7.8819 10.5799 7.60102 10.5674C7.16802 10.5483 6.73436 10.5628 6.30137 10.5628Z" fill="white"/>
<path id="Vector_10" d="M9.79323 7.60294C9.42094 7.85513 9.13539 8.25153 8.60298 8.20675C8.33611 8.18371 8.40283 8.03818 8.40283 7.9032C8.40283 7.76821 8.31276 7.58516 8.59498 7.59833C8.99461 7.61611 9.39426 7.60294 9.79323 7.60294Z" fill="white"/>
</g>
</svg>
