<svg width="186" height="46" viewBox="0 0 186 46" fill="none" xmlns="http://www.w3.org/2000/svg">
<path d="M29.9176 13.0975H24.7472C24.5483 11.9927 24.1782 11.0205 23.6368 10.1809C23.0955 9.34122 22.4326 8.62863 21.6482 8.04308C20.8638 7.45754 19.9855 7.01562 19.0133 6.71733C18.0521 6.41903 17.0301 6.26988 15.9474 6.26988C13.992 6.26988 12.2408 6.76152 10.6941 7.74479C9.15846 8.72806 7.94318 10.1698 7.0483 12.0701C6.16446 13.9703 5.72254 16.2904 5.72254 19.0303C5.72254 21.7923 6.16446 24.1234 7.0483 26.0237C7.94318 27.9239 9.16398 29.3602 10.7107 30.3324C12.2574 31.3046 13.9975 31.7907 15.9309 31.7907C17.0025 31.7907 18.0189 31.6471 18.9801 31.3598C19.9523 31.0616 20.8307 30.6252 21.6151 30.0507C22.3995 29.4762 23.0623 28.7746 23.6037 27.946C24.1561 27.1064 24.5373 26.1452 24.7472 25.0625L29.9176 25.0791C29.6414 26.7473 29.1056 28.283 28.3101 29.6861C27.5257 31.0781 26.5148 32.2824 25.2775 33.2988C24.0511 34.3041 22.648 35.083 21.0682 35.6354C19.4883 36.1878 17.7648 36.464 15.8977 36.464C12.959 36.464 10.3406 35.768 8.04262 34.3759C5.74464 32.9729 3.93277 30.9676 2.60701 28.3603C1.2923 25.753 0.634944 22.643 0.634944 19.0303C0.634944 15.4066 1.29782 12.2966 2.62358 9.70028C3.94934 7.09296 5.76121 5.09327 8.05919 3.70123C10.3572 2.29813 12.97 1.59659 15.8977 1.59659C17.6986 1.59659 19.3778 1.85621 20.9356 2.37547C22.5044 2.88368 23.913 3.63494 25.1615 4.62926C26.4099 5.61253 27.4429 6.81676 28.2604 8.24195C29.078 9.65609 29.6304 11.2746 29.9176 13.0975ZM40.6024 2.0606V36H35.6474V2.0606H40.6024ZM47.2685 36V10.5455H52.2235V36H47.2685ZM49.7708 6.61789C48.9091 6.61789 48.1689 6.33065 47.5502 5.75615C46.9426 5.17061 46.6387 4.47458 46.6387 3.66808C46.6387 2.85053 46.9426 2.15451 47.5502 1.58001C48.1689 0.994471 48.9091 0.7017 49.7708 0.7017C50.6326 0.7017 51.3673 0.994471 51.9749 1.58001C52.5936 2.15451 52.9029 2.85053 52.9029 3.66808C52.9029 4.47458 52.5936 5.17061 51.9749 5.75615C51.3673 6.33065 50.6326 6.61789 49.7708 6.61789ZM69.6116 36.5137C67.1479 36.5137 65.0267 35.9558 63.248 34.84C61.4803 33.7131 60.1214 32.1608 59.1713 30.1832C58.2212 28.2056 57.7461 25.9408 57.7461 23.3887C57.7461 20.8035 58.2322 18.5221 59.2044 16.5445C60.1767 14.5559 61.5466 13.0036 63.3143 11.8878C65.082 10.7719 67.1645 10.214 69.5619 10.214C71.4953 10.214 73.2188 10.5731 74.7324 11.2912C76.2459 11.9983 77.4667 12.9926 78.3948 14.2741C79.3339 15.5557 79.8918 17.0527 80.0685 18.7651H75.2461C74.981 17.572 74.3733 16.5445 73.4232 15.6828C72.4841 14.821 71.2246 14.3901 69.6448 14.3901C68.2638 14.3901 67.054 14.7547 66.0155 15.4839C64.9881 16.202 64.1871 17.2295 63.6126 18.5663C63.0381 19.892 62.7508 21.4609 62.7508 23.2727C62.7508 25.1288 63.0326 26.7307 63.596 28.0786C64.1595 29.4265 64.9549 30.4705 65.9824 31.2107C67.0209 31.9509 68.2417 32.321 69.6448 32.321C70.5839 32.321 71.4346 32.1498 72.1969 31.8073C72.9702 31.4538 73.6165 30.9511 74.1358 30.2992C74.6661 29.6474 75.0362 28.863 75.2461 27.946H80.0685C79.8918 29.5922 79.356 31.0616 78.4611 32.3542C77.5662 33.6468 76.3675 34.6632 74.8649 35.4034C73.3735 36.1436 71.6224 36.5137 69.6116 36.5137ZM89.9247 27.366L89.8916 21.3172H90.7533L100.895 10.5455H106.828L95.2609 22.8087H94.482L89.9247 27.366ZM85.3674 36V2.0606H90.3225V36H85.3674ZM101.442 36L92.3277 23.9025L95.7415 20.4389L107.524 36H101.442Z" fill="#1185E0"/>
<path d="M121.266 36.5137C118.759 36.5137 116.599 35.9779 114.787 34.9062C112.986 33.8235 111.594 32.3045 110.611 30.349C109.638 28.3824 109.152 26.0789 109.152 23.4384C109.152 20.8311 109.638 18.5331 110.611 16.5445C111.594 14.5559 112.964 13.0036 114.721 11.8878C116.488 10.7719 118.554 10.214 120.918 10.214C122.355 10.214 123.747 10.4515 125.095 10.9266C126.442 11.4017 127.652 12.1474 128.724 13.1638C129.796 14.1802 130.641 15.5005 131.259 17.1245C131.878 18.7375 132.187 20.6985 132.187 23.0076V24.7642H111.953V21.0521H127.332C127.332 19.7484 127.067 18.5939 126.536 17.5885C126.006 16.5721 125.26 15.7711 124.299 15.1856C123.349 14.6001 122.233 14.3073 120.952 14.3073C119.56 14.3073 118.344 14.6498 117.306 15.3348C116.278 16.0087 115.483 16.8925 114.919 17.9863C114.367 19.069 114.091 20.2456 114.091 21.5161V24.4162C114.091 26.1176 114.389 27.5649 114.986 28.758C115.593 29.9512 116.439 30.8627 117.521 31.4924C118.604 32.1111 119.869 32.4205 121.316 32.4205C122.255 32.4205 123.111 32.2879 123.885 32.0227C124.658 31.7465 125.327 31.3378 125.89 30.7964C126.453 30.255 126.884 29.5866 127.183 28.7912L131.873 29.6364C131.497 31.0174 130.823 32.2271 129.851 33.2656C128.89 34.2931 127.68 35.0941 126.221 35.6686C124.774 36.232 123.123 36.5137 121.266 36.5137ZM137.155 36V32.6027L150.943 15.0862V14.8542H137.602V10.5455H157.124V14.1581L143.866 31.4593V31.6913H157.588V36H137.155ZM166.566 45.5455C165.826 45.5455 165.152 45.4847 164.544 45.3632C163.937 45.2527 163.484 45.1312 163.185 44.9986L164.378 40.9384C165.284 41.1815 166.091 41.2865 166.798 41.2533C167.505 41.2202 168.129 40.955 168.671 40.4579C169.223 39.9607 169.709 39.1487 170.129 38.0218L170.742 36.3314L161.429 10.5455H166.732L173.178 30.2992H173.443L179.89 10.5455H185.209L174.719 39.3973C174.233 40.723 173.615 41.8444 172.863 42.7614C172.112 43.6894 171.217 44.3854 170.179 44.8494C169.14 45.3134 167.936 45.5455 166.566 45.5455Z" fill="white"/>
</svg>
